<svg xmlns="http://www.w3.org/2000/svg" xmlns:xlink="http://www.w3.org/1999/xlink" width="300" zoomAndPan="magnify" viewBox="0 0 224.87999 112.499997" height="150" preserveAspectRatio="xMidYMid meet" version="1.0"><defs><clipPath id="054f39fa4f"><path d="M 0.4375 10.460938 L 209.550781 10.460938 L 209.550781 107.910156 L 0.4375 107.910156 Z M 0.4375 10.460938 " clip-rule="nonzero"/></clipPath><clipPath id="7393583473"><path d="M 107.957031 55.296875 C 109.578125 56.957031 110.972656 58.753906 112.085938 60.644531 C 115.886719 67.058594 116.453125 74.859375 113.535156 80.542969 C 111.191406 85.0625 106.039062 88.183594 101.421875 88.183594 C 100.613281 88.183594 99.828125 88.097656 99.078125 87.894531 C 98.023438 87.617188 97.511719 87.292969 97.425781 87.203125 C 97.40625 87.175781 96.9375 86.542969 96.667969 84.09375 C 95.621094 74.4375 99.933594 63.785156 107.957031 55.289062 Z M 176.484375 10.527344 C 173.902344 10.527344 171.28125 10.617188 168.640625 10.789062 C 146.382812 12.210938 124.253906 19.457031 107.113281 30.832031 C 104.953125 29.707031 102.6875 28.710938 100.355469 27.816406 C 93.03125 25.03125 85.609375 23.652344 77.960938 23.652344 C 71.230469 23.652344 64.332031 24.714844 57.179688 26.867188 C 44.394531 30.695312 33.019531 38.902344 20.625 43.972656 C 1.59375 51.746094 -14.707031 62.824219 -32.636719 62.824219 C -33.203125 62.824219 -33.78125 62.8125 -34.347656 62.785156 L -36.285156 81.1875 C -33.816406 81.445312 -31.390625 81.570312 -28.988281 81.570312 C -7.144531 81.570312 11.777344 71.28125 30.160156 61.007812 C 46.996094 51.601562 62.09375 43.175781 77.84375 43.175781 C 82.117188 43.175781 86.4375 43.796875 90.851562 45.179688 C 87.972656 48.65625 85.46875 52.378906 83.402344 56.285156 C 78.296875 65.953125 76.175781 76.300781 77.25 86.226562 C 77.882812 92.0625 79.667969 96.582031 82.710938 100.058594 C 85.496094 103.246094 89.449219 105.578125 94.132812 106.796875 C 96.523438 107.429688 98.980469 107.726562 101.429688 107.726562 C 113.273438 107.726562 125.109375 100.699219 130.878906 89.5 C 136.90625 77.796875 136.148438 62.929688 128.871094 50.691406 C 127.402344 48.195312 125.667969 45.824219 123.699219 43.585938 C 137.097656 36.148438 153.65625 31.3125 169.890625 30.265625 C 172.125 30.128906 174.34375 30.054688 176.523438 30.054688 C 188.65625 30.054688 199.742188 32.269531 209.128906 36.511719 L 209.128906 15.585938 C 199.175781 12.257812 188.164062 10.539062 176.472656 10.539062 Z M 176.484375 10.527344 " clip-rule="nonzero"/></clipPath><clipPath id="ffaa1cbeea"><path d="M 194 12 L 223 12 L 223 38 L 194 38 Z M 194 12 " clip-rule="nonzero"/></clipPath><clipPath id="520c8432ff"><path d="M 225.535156 21.65625 L 218.941406 40.183594 L 194.121094 31.347656 L 200.714844 12.824219 Z M 225.535156 21.65625 " clip-rule="nonzero"/></clipPath><clipPath id="54f69d9ff4"><path d="M 222.804688 27.644531 C 222.789062 28.707031 222.613281 29.863281 222.238281 30.925781 C 221.859375 31.984375 221.316406 32.941406 220.660156 33.765625 C 220.640625 33.78125 220.636719 33.800781 220.617188 33.816406 C 218.078125 36.890625 213.757812 38.28125 209.726562 36.902344 L 194.136719 31.355469 L 200.730469 12.828125 L 216.308594 18.375 C 220.335938 19.863281 222.820312 23.628906 222.804688 27.644531 Z M 222.804688 27.644531 " clip-rule="nonzero"/></clipPath><clipPath id="e5c1a0f2ec"><path d="M 119 0 L 224.324219 0 L 224.324219 38 L 119 38 Z M 119 0 " clip-rule="nonzero"/></clipPath><clipPath id="37e40dbd24"><path d="M 109 9 L 224.324219 9 L 224.324219 52 L 109 52 Z M 109 9 " clip-rule="nonzero"/></clipPath></defs><g clip-path="url(#054f39fa4f)"><g clip-path="url(#7393583473)"><path fill="#fbc5ff" d="M -268.546875 -12.21875 L 212.921875 -12.21875 L 212.921875 111.289062 L -268.546875 111.289062 Z M -268.546875 -12.21875 " fill-opacity="1" fill-rule="nonzero"/></g></g><g clip-path="url(#ffaa1cbeea)"><g clip-path="url(#520c8432ff)"><g clip-path="url(#54f69d9ff4)"><path fill="#fbc5ff" d="M 225.535156 21.65625 L 218.941406 40.183594 L 194.121094 31.347656 L 200.714844 12.824219 Z M 225.535156 21.65625 " fill-opacity="1" fill-rule="nonzero"/></g></g></g><g clip-path="url(#e5c1a0f2ec)"><path stroke-linecap="butt" transform="matrix(0.746676, -0.00276547, 0.00276547, 0.746676, 135.427495, 10.803461)" fill="none" stroke-linejoin="miter" d="M 0.608906 12.951904 C 46.103964 -1.653402 82.10726 -1.650844 108.613583 12.954326 " stroke="#fbc5ff" stroke-width="4" stroke-opacity="1" stroke-miterlimit="4"/></g><g clip-path="url(#37e40dbd24)"><path stroke-linecap="butt" transform="matrix(0.746662, 0.00537313, -0.00537313, 0.746662, 125.685286, 24.239065)" fill="none" stroke-linejoin="miter" d="M 0.593184 12.953397 C 47.426162 -1.650242 84.481707 -1.650089 111.770282 12.953782 " stroke="#fbc5ff" stroke-width="4" stroke-opacity="1" stroke-miterlimit="4"/></g></svg>