<svg xmlns="http://www.w3.org/2000/svg" xmlns:xlink="http://www.w3.org/1999/xlink" width="305" zoomAndPan="magnify" viewBox="0 0 228.75 52.499999" height="70" preserveAspectRatio="xMidYMid meet" version="1.0"><defs><clipPath id="03c639be95"><path d="M 0.957031 3.414062 L 22.261719 3.414062 L 22.261719 36.324219 L 0.957031 36.324219 Z M 0.957031 3.414062 " clip-rule="nonzero"/></clipPath><clipPath id="246a09fed8"><path d="M 21.285156 3.414062 L 1.847656 3.414062 C 1.328125 3.414062 0.957031 3.835938 0.957031 4.304688 L 0.957031 35.386719 C 0.957031 35.855469 1.328125 36.277344 1.847656 36.277344 L 7.390625 36.277344 C 7.859375 36.277344 8.28125 35.855469 8.28125 35.386719 L 8.28125 23.976562 L 18.984375 23.976562 C 19.453125 23.976562 19.875 23.554688 19.875 23.085938 L 19.875 17.96875 C 19.875 17.5 19.453125 17.078125 18.984375 17.078125 L 8.28125 17.078125 L 8.28125 10.3125 L 21.285156 10.3125 C 21.804688 10.3125 22.179688 9.890625 22.179688 9.421875 L 22.179688 4.304688 C 22.179688 3.835938 21.800781 3.414062 21.285156 3.414062 " clip-rule="nonzero"/></clipPath><clipPath id="b0c619e63a"><path d="M 122.402344 9.730469 L 227.546875 9.730469 L 227.546875 51.546875 L 122.402344 51.546875 Z M 122.402344 9.730469 " clip-rule="nonzero"/></clipPath><clipPath id="49cfc22a60"><path d="M 184.386719 28.96875 C 185.085938 29.683594 185.683594 30.453125 186.164062 31.265625 C 187.792969 34.015625 188.035156 37.367188 186.78125 39.804688 C 185.777344 41.746094 183.566406 43.082031 181.585938 43.082031 C 181.238281 43.082031 180.902344 43.042969 180.578125 42.957031 C 180.128906 42.839844 179.90625 42.699219 179.871094 42.660156 C 179.863281 42.648438 179.660156 42.375 179.546875 41.328125 C 179.097656 37.1875 180.945312 32.609375 184.386719 28.964844 Z M 213.796875 9.757812 C 212.6875 9.757812 211.5625 9.796875 210.429688 9.871094 C 200.878906 10.480469 191.382812 13.589844 184.027344 18.472656 C 183.101562 17.992188 182.128906 17.558594 181.125 17.175781 C 177.984375 15.984375 174.800781 15.390625 171.515625 15.390625 C 168.628906 15.390625 165.671875 15.847656 162.601562 16.769531 C 157.113281 18.414062 152.234375 21.9375 146.917969 24.109375 C 138.746094 27.449219 131.753906 32.199219 124.058594 32.199219 C 123.816406 32.199219 123.570312 32.195312 123.324219 32.1875 L 122.492188 40.078125 C 123.550781 40.191406 124.59375 40.242188 125.625 40.242188 C 135 40.242188 143.117188 35.832031 151.007812 31.421875 C 158.230469 27.386719 164.710938 23.769531 171.46875 23.769531 C 173.304688 23.769531 175.15625 24.035156 177.050781 24.628906 C 175.8125 26.121094 174.738281 27.71875 173.855469 29.394531 C 171.664062 33.542969 170.75 37.984375 171.214844 42.242188 C 171.484375 44.746094 172.25 46.6875 173.558594 48.179688 C 174.75 49.546875 176.445312 50.542969 178.457031 51.070312 C 179.484375 51.339844 180.539062 51.46875 181.589844 51.46875 C 186.671875 51.46875 191.75 48.453125 194.226562 43.648438 C 196.8125 38.628906 196.484375 32.246094 193.367188 26.992188 C 192.734375 25.925781 191.988281 24.90625 191.144531 23.945312 C 196.894531 20.753906 204.003906 18.675781 210.964844 18.230469 C 211.925781 18.167969 212.878906 18.136719 213.808594 18.136719 C 219.019531 18.136719 223.773438 19.089844 227.800781 20.910156 L 227.800781 11.929688 C 223.53125 10.5 218.808594 9.761719 213.792969 9.761719 Z M 213.796875 9.757812 " clip-rule="nonzero"/></clipPath><clipPath id="4169a7b172"><path d="M 24.277344 3.3125 L 44.355469 3.3125 L 44.355469 37 L 24.277344 37 Z M 24.277344 3.3125 " clip-rule="nonzero"/></clipPath><clipPath id="165764dbbb"><path d="M 43.316406 29.90625 L 31.890625 29.90625 L 31.890625 4.273438 C 31.890625 3.792969 31.460938 3.363281 30.980469 3.363281 L 25.269531 3.363281 C 24.742188 3.363281 24.355469 3.792969 24.355469 4.273438 L 24.355469 36.046875 C 24.355469 36.527344 24.742188 36.960938 25.269531 36.960938 L 43.316406 36.960938 C 43.84375 36.960938 44.226562 36.527344 44.226562 36.046875 L 44.226562 30.816406 C 44.226562 30.335938 43.84375 29.90625 43.316406 29.90625 " clip-rule="nonzero"/></clipPath><clipPath id="191618541b"><path d="M 43.734375 1.449219 L 137.308594 1.449219 L 137.308594 40.367188 L 43.734375 40.367188 Z M 43.734375 1.449219 " clip-rule="nonzero"/></clipPath><clipPath id="4c666ab4a1"><path d="M 136.964844 33.722656 C 136.296875 31.617188 134.046875 30.453125 131.941406 31.125 C 126.714844 32.78125 119.671875 32.792969 114.8125 29.894531 C 108.957031 26.40625 112.019531 14.894531 113.867188 9.886719 C 114.632812 7.816406 113.574219 5.515625 111.503906 4.75 C 109.429688 3.984375 107.128906 5.042969 106.363281 7.117188 C 105.726562 8.839844 105.132812 10.601562 104.5625 12.300781 C 103.375 15.820312 102.253906 19.148438 100.765625 22.207031 C 98.652344 26.535156 95.863281 29.796875 93.660156 30.519531 C 92.9375 30.757812 92.316406 30.703125 91.597656 30.324219 C 90.878906 29.949219 90.324219 29.292969 90.054688 28.527344 C 89.65625 27.359375 89.78125 25.625 90.417969 23.5 C 90.9375 21.765625 91.570312 19.976562 92.246094 18.074219 C 93.605469 14.226562 95.015625 10.253906 95.664062 6.15625 C 96.003906 3.972656 94.515625 1.925781 92.332031 1.582031 C 90.15625 1.234375 88.109375 2.726562 87.765625 4.910156 C 86.664062 11.902344 82.433594 15.398438 78.042969 17.125 C 76.601562 9.007812 69.582031 2.882812 61.039062 2.882812 C 51.4375 2.882812 43.808594 10.609375 43.808594 20.210938 C 43.808594 29.8125 51.441406 37.441406 61.039062 37.441406 C 68.710938 37.441406 75.152344 32.5625 77.433594 25.699219 C 79.074219 25.285156 80.628906 24.753906 82.078125 24.101562 C 81.648438 26.710938 81.789062 29.0625 82.492188 31.113281 C 83.414062 33.800781 85.378906 36.097656 87.894531 37.410156 C 90.523438 38.785156 93.378906 39.027344 96.160156 38.117188 C 99.976562 36.863281 102.984375 33.671875 105.144531 30.546875 C 105.515625 31.4375 105.960938 32.277344 106.496094 33.054688 C 108.261719 35.609375 110.730469 36.882812 112.679688 37.710938 C 116.597656 39.367188 120.777344 40.199219 124.949219 40.199219 C 128.128906 40.199219 131.308594 39.71875 134.367188 38.742188 C 136.472656 38.074219 137.636719 35.824219 136.964844 33.722656 M 61.039062 29.761719 C 55.804688 29.761719 51.488281 25.441406 51.488281 20.210938 C 51.488281 14.929688 55.808594 10.5625 61.039062 10.5625 C 66.316406 10.5625 70.636719 14.929688 70.636719 20.210938 C 70.636719 25.445312 66.320312 29.761719 61.039062 29.761719 " clip-rule="nonzero"/></clipPath></defs><g clip-path="url(#03c639be95)"><g clip-path="url(#246a09fed8)"><path fill="#fbc5ff" d="M 0.957031 3.414062 L 22.179688 3.414062 L 22.179688 36.242188 L 0.957031 36.242188 Z M 0.957031 3.414062 " fill-opacity="1" fill-rule="nonzero"/></g></g><g clip-path="url(#b0c619e63a)"><g clip-path="url(#49cfc22a60)"><path fill="#fbc5ff" d="M 22.828125 0 L 229.433594 0 L 229.433594 52.996094 L 22.828125 52.996094 Z M 22.828125 0 " fill-opacity="1" fill-rule="nonzero"/></g></g><g clip-path="url(#4169a7b172)"><g clip-path="url(#165764dbbb)"><path fill="#fbc5ff" d="M 22.828125 0 L 229.433594 0 L 229.433594 52.996094 L 22.828125 52.996094 Z M 22.828125 0 " fill-opacity="1" fill-rule="nonzero"/></g></g><g clip-path="url(#191618541b)"><g clip-path="url(#4c666ab4a1)"><path fill="#fbc5ff" d="M 22.828125 0 L 229.433594 0 L 229.433594 52.996094 L 22.828125 52.996094 Z M 22.828125 0 " fill-opacity="1" fill-rule="nonzero"/></g></g></svg>