<svg xmlns="http://www.w3.org/2000/svg" xmlns:xlink="http://www.w3.org/1999/xlink" width="1920" zoomAndPan="magnify" viewBox="0 0 1440 809.999993" height="1080" preserveAspectRatio="xMidYMid meet" version="1.0"><defs><g/><clipPath id="b320e7575d"><path d="M 362.769531 0 L 1297.789062 0 L 1297.789062 810 L 362.769531 810 Z M 362.769531 0 " clip-rule="nonzero"/></clipPath></defs><g clip-path="url(#b320e7575d)"><path fill="#fece0a" d="M 588.011719 -0.015625 C 576.886719 0.390625 565.210938 6.007812 561.671875 17.128906 C 559.410156 24.222656 561.320312 31.707031 564.917969 38 C 567.980469 43.363281 572.65625 47.789062 574.90625 53.617188 C 576.617188 58.054688 575.324219 60.496094 570.914062 62.183594 C 565 64.445312 558.257812 64.738281 551.992188 64.878906 C 537.777344 65.203125 523.378906 63.109375 510.523438 70.820312 C 498.160156 78.25 493.089844 91.96875 493.734375 105.902344 C 494.410156 120.03125 498.917969 133.695312 504.707031 146.5 C 510.355469 158.988281 518.894531 171.132812 518.980469 185.375 C 519.007812 191.582031 516.914062 197.4375 511.746094 201.175781 C 506.773438 204.726562 500.492188 205.878906 494.480469 205.878906 C 480.910156 205.808594 467.605469 198.519531 465.625 184.152344 C 463.730469 170.40625 470.839844 157.148438 474.871094 144.410156 C 478.957031 131.503906 482.441406 117.949219 481.121094 104.3125 C 480.601562 98.964844 479.476562 93.726562 477.257812 88.824219 C 475.109375 84.050781 471.960938 80.0625 469.109375 75.722656 C 466.160156 71.199219 464.53125 66.71875 465.078125 61.269531 C 465.445312 57.546875 466.625 53.996094 467.46875 50.429688 C 469.953125 40.078125 467.410156 25.277344 454.234375 24.347656 C 438.445312 23.296875 433.949219 41.453125 428.933594 52.578125 C 426.265625 58.503906 423.035156 64.207031 418.945312 69.289062 C 414.6875 74.597656 409.714844 79.230469 404.800781 83.921875 C 395.445312 92.855469 386.550781 101.816406 379.445312 112.699219 C 363.625 136.925781 358.132812 166.738281 367.011719 194.558594 C 371.394531 208.308594 378.964844 220.976562 388.941406 231.410156 C 397.804688 240.695312 405.851562 250.75 410.011719 263.066406 C 411.976562 268.992188 412.863281 275.199219 412.765625 281.433594 C 412.636719 288.246094 411.007812 294.816406 410.433594 301.574219 C 409.183594 316.347656 411.136719 331.429688 417.105469 345.054688 C 428.90625 371.917969 454.878906 388.363281 483.820312 390.414062 C 498.722656 391.46875 513.417969 388.757812 527.492188 383.980469 C 540.402344 379.601562 554.367188 377.859375 567.121094 383.671875 C 580.859375 389.949219 589.738281 402.335938 601.972656 410.679688 C 613.71875 418.683594 627.203125 424.105469 641.183594 426.660156 C 656.902344 429.539062 673.070312 428.769531 688.707031 425.679688 C 695.910156 424.257812 703.007812 422.363281 710.03125 420.230469 C 716.5625 418.25 722.96875 415.933594 729.625 414.414062 C 735.878906 412.996094 742.480469 412.210938 748.859375 413.191406 C 753.5625 413.910156 759.757812 415.902344 760.136719 421.449219 C 760.519531 427.125 757.074219 432.898438 754.011719 437.375 C 749.996094 443.191406 745.09375 448.273438 740.34375 453.46875 C 730.695312 464.046875 723.515625 476.964844 720.929688 491.136719 C 718.304688 505.515625 720.691406 520.460938 727.675781 533.308594 C 731.269531 539.9375 735.992188 545.933594 741.453125 551.132812 C 746.117188 555.582031 751.246094 559.304688 754.6875 564.90625 C 761.808594 576.605469 753.351562 586.773438 746.539062 596.128906 C 737.984375 607.855469 733.277344 622.21875 734.65625 636.785156 C 735.933594 650.390625 742.4375 663.171875 752.355469 672.539062 C 757.792969 677.679688 763.972656 681.035156 770.546875 684.476562 C 775.410156 687.019531 780.042969 690.332031 783.234375 694.882812 C 790.242188 704.9375 788.683594 718.183594 789.960938 729.726562 C 793.191406 758.964844 809.011719 785.648438 835.421875 799.578125 C 861.816406 813.511719 893.410156 812.695312 920.675781 801.726562 C 934.484375 796.167969 947.253906 788.0625 958.351562 778.148438 C 968.539062 769.046875 976.136719 757.140625 987.320312 749.132812 C 993.175781 744.964844 999.921875 742.378906 1006.929688 740.933594 C 1013.871094 739.5 1020.949219 739.527344 1027.875 737.984375 C 1041.402344 734.992188 1054.257812 727.828125 1061.996094 716.074219 C 1069.878906 703.996094 1070.863281 688.550781 1064.496094 675.601562 C 1058.105469 662.554688 1046.136719 654.71875 1032.960938 649.632812 C 1027.480469 647.527344 1022.242188 644.425781 1018.8125 639.535156 C 1015.484375 634.847656 1014.011719 629.058594 1013.292969 623.441406 C 1012.492188 617.191406 1012.464844 610.984375 1010.960938 604.820312 C 1009.542969 598.878906 1007.054688 593.179688 1003.433594 588.234375 C 999.539062 582.914062 994.496094 578.613281 989.101562 574.878906 C 983.429688 570.976562 977.132812 567.914062 971.769531 563.558594 C 967.355469 559.964844 962.089844 554.742188 962.019531 548.617188 C 961.964844 542.832031 967.554688 540.515625 972.625 541.035156 C 984.523438 542.253906 991.660156 553.855469 999.328125 561.59375 C 1009.628906 572 1021.820312 580.441406 1035.65625 585.410156 C 1050.210938 590.648438 1066.085938 591.871094 1081.285156 588.964844 C 1088.265625 587.632812 1095.09375 585.496094 1101.5 582.421875 C 1107.625 579.484375 1112.992188 575.273438 1118.960938 572.070312 C 1131.238281 565.46875 1144.683594 562.027344 1158.644531 562.578125 C 1165.921875 562.871094 1172.890625 564.472656 1180.027344 565.636719 C 1187.332031 566.832031 1194.734375 567.367188 1202.136719 567.113281 C 1230.207031 566.117188 1258.175781 551.902344 1269.890625 525.359375 C 1282.265625 497.457031 1273.078125 465.183594 1251.152344 444.902344 C 1242.105469 436.546875 1227.394531 430.496094 1225.175781 416.929688 C 1222.871094 402.914062 1238.058594 396.410156 1246.796875 388.882812 C 1257.542969 379.628906 1266.167969 367.535156 1267.992188 353.183594 C 1268.878906 346.203125 1268.105469 339.140625 1266.210938 332.371094 C 1264.679688 326.894531 1262.078125 321.839844 1260.449219 316.390625 C 1258.988281 311.542969 1258.105469 306.066406 1260.449219 301.335938 C 1263.007812 296.136719 1268.246094 292.613281 1273.261719 290.070312 C 1279.441406 286.925781 1285.214844 283.679688 1289.851562 278.371094 C 1294.445312 273.132812 1297.4375 266.574219 1297.761719 259.582031 C 1298.378906 246.042969 1289.597656 234.164062 1277.785156 228.347656 C 1271.449219 225.230469 1264.371094 223.699219 1257.332031 223.449219 C 1251.023438 223.238281 1244.507812 222.578125 1239.140625 218.925781 C 1228.914062 211.972656 1231.90625 198.925781 1231.175781 188.4375 C 1230.234375 174.984375 1226.398438 161.207031 1217.578125 150.714844 C 1208.640625 140.082031 1195.199219 134.339844 1181.613281 132.78125 C 1174.464844 131.953125 1167.199219 132.191406 1160.066406 133.089844 C 1152.703125 134.003906 1145.609375 135.953125 1138.375 137.429688 C 1131.871094 138.765625 1125.070312 139.480469 1118.46875 138.539062 C 1113.496094 137.824219 1106.851562 135.816406 1104.925781 130.578125 C 1102.960938 125.308594 1106.347656 119.734375 1111.179688 117.601562 C 1117.023438 115.015625 1123.46875 116.785156 1129.625 116.308594 C 1141.074219 115.4375 1154.136719 109.019531 1155.035156 96.167969 C 1155.976562 82.671875 1144.132812 72.617188 1132.796875 67.941406 C 1119.902344 62.605469 1105.375 61.777344 1091.582031 61.761719 C 1077.28125 61.761719 1063.035156 63.585938 1049.1875 67.15625 C 1020.078125 74.625 993.765625 89.230469 970.601562 108.164062 C 960.585938 116.363281 947.984375 122.136719 934.824219 121.519531 C 920.113281 120.828125 908.496094 112.5 897.285156 103.878906 C 885.613281 94.90625 872.957031 86.929688 858.9375 82.210938 C 845.703125 77.730469 831.839844 76.621094 818.015625 78.53125 C 803.558594 80.539062 789.640625 85.507812 776.363281 91.449219 C 765.042969 96.519531 750.359375 101.730469 738.265625 96.226562 C 725.300781 90.367188 720.328125 76.367188 713.332031 65.132812 C 705.632812 52.730469 694.71875 42.074219 680.683594 37.269531 C 667.519531 32.761719 653.460938 34.25 640.4375 38.5625 C 635.746094 40.164062 629.535156 41.804688 624.632812 40.332031 C 619.308594 38.742188 618.507812 31.160156 618.324219 26.554688 C 617.792969 12.144531 606.863281 1.527344 592.730469 0.109375 C 591.1875 -0.0429688 589.597656 -0.0742188 588.011719 -0.015625 Z M 588.742188 8.074219 C 598.953125 8.351562 608.941406 14.351562 608.828125 27.171875 C 608.648438 49.460938 622.246094 57.140625 644.175781 50.132812 C 672.984375 40.90625 691.304688 54.964844 701.753906 79.511719 C 716.519531 114.171875 741.414062 130.746094 785.917969 112.753906 C 828.1875 95.675781 853.824219 100.4375 886.933594 124.089844 C 917.289062 145.773438 950.445312 146.992188 981.9375 120.226562 C 1031.175781 78.375 1082.015625 66.101562 1121.277344 73.332031 C 1160.867188 80.621094 1155.765625 112.824219 1121.839844 108.597656 C 1084.359375 103.933594 1081.902344 161.289062 1145.117188 149.492188 C 1194.523438 140.28125 1213.304688 162.777344 1214.640625 197.3125 C 1215.441406 218.011719 1227.214844 235.003906 1255.855469 233.742188 C 1291.300781 232.167969 1303.128906 267.433594 1270.128906 280.523438 C 1246.234375 289.988281 1240.375 306.796875 1249.550781 329.253906 C 1258.300781 350.640625 1250.925781 367.03125 1226.089844 381.847656 C 1198.175781 398.488281 1196.28125 432.726562 1228.054688 455.253906 C 1273.65625 487.582031 1251.222656 554.558594 1181.558594 543.84375 C 1149.980469 538.984375 1126.421875 546.089844 1101.625 563.25 C 1071.242188 584.289062 1027.75 583.882812 997 548.195312 C 969.269531 515.992188 933.683594 547.535156 973.609375 574.585938 C 995.367188 589.316406 999.007812 597.65625 1000.003906 619.03125 C 1000.890625 638.007812 1005.582031 655.25 1029.097656 664.828125 C 1063.429688 678.789062 1058.386719 718.152344 1015.371094 721.269531 C 984.003906 723.546875 969.859375 732.871094 949.53125 753.363281 C 900.503906 802.765625 818.691406 793.625 813.183594 722.199219 C 810.949219 693.253906 802.351562 677.132812 776.308594 664.828125 C 754.308594 654.421875 744.757812 628.160156 762.273438 604.511719 C 778.203125 583.039062 778.75 562.6875 754.5625 543.785156 C 726.621094 521.949219 725.230469 486.601562 750.09375 460.269531 C 790.480469 417.492188 760.195312 392.816406 716.335938 406.703125 C 661.902344 423.9375 627.878906 410.171875 601.792969 384.109375 C 581.058594 363.378906 557.386719 350.191406 518.855469 362.675781 C 466.804688 379.558594 426.601562 347.453125 432.613281 297.234375 C 436.097656 268.078125 425.6875 244.78125 401.1875 220.328125 C 368.402344 187.636719 367.082031 138.820312 401.1875 102.714844 C 422.585938 80.074219 430.140625 73.601562 439.035156 44.558594 C 446.800781 19.222656 468.589844 28.113281 462.253906 48.839844 C 457.085938 65.765625 457.394531 71.664062 465.992188 84.597656 C 478.464844 103.359375 472.789062 120.757812 458.335938 153.847656 C 418.933594 244.050781 574.609375 244.246094 521.605469 151.878906 C 491.980469 100.242188 503.175781 73.125 539.617188 72.96875 C 582.417969 72.785156 589.164062 60.863281 573.683594 39.964844 C 558.453125 19.449219 573.835938 7.652344 588.742188 8.074219 Z M 984.566406 42.351562 C 981.308594 42.492188 978.105469 43.070312 974.957031 43.941406 C 962.972656 47.269531 949.9375 56.4375 950.148438 70.203125 C 950.359375 84.035156 964.042969 89.917969 976.179688 88.207031 C 982.910156 87.265625 989.625 84.75 995.59375 81.535156 C 1001.394531 78.402344 1007.054688 73.9375 1009.429688 67.574219 C 1013.660156 56.296875 1004.949219 46.203125 994.300781 43.390625 C 991.113281 42.550781 987.824219 42.210938 984.566406 42.351562 Z M 986.589844 51.355469 C 1006.144531 50.863281 1011.917969 69.234375 987.753906 79.511719 C 955.234375 93.359375 945.402344 61.636719 977.402344 52.757812 C 980.714844 51.847656 983.792969 51.425781 986.589844 51.355469 " fill-opacity="1" fill-rule="nonzero"/></g><path fill="#fc3226" d="M 588.742188 8.074219 C 573.835938 7.652344 558.453125 19.449219 573.683594 39.964844 C 589.164062 60.863281 582.417969 72.785156 539.617188 72.96875 C 503.175781 73.125 491.980469 100.242188 521.605469 151.878906 C 574.609375 244.246094 418.933594 244.050781 458.335938 153.847656 C 472.789062 120.757812 478.464844 103.359375 465.992188 84.597656 C 457.394531 71.664062 457.085938 65.765625 462.253906 48.839844 C 468.589844 28.113281 446.800781 19.222656 439.035156 44.558594 C 430.140625 73.601562 422.585938 80.074219 401.1875 102.714844 C 367.082031 138.820312 368.402344 187.636719 401.1875 220.328125 C 425.6875 244.78125 436.097656 268.078125 432.613281 297.234375 C 426.601562 347.453125 466.804688 379.558594 518.855469 362.675781 C 557.386719 350.191406 581.058594 363.378906 601.792969 384.109375 C 627.878906 410.171875 661.902344 423.9375 716.335938 406.703125 C 760.195312 392.816406 790.480469 417.492188 750.09375 460.269531 C 725.230469 486.601562 726.621094 521.949219 754.5625 543.785156 C 778.75 562.6875 778.203125 583.039062 762.273438 604.511719 C 744.757812 628.160156 754.308594 654.421875 776.308594 664.828125 C 802.351562 677.132812 810.949219 693.253906 813.183594 722.199219 C 818.691406 793.625 900.503906 802.765625 949.53125 753.363281 C 969.859375 732.871094 984.003906 723.546875 1015.371094 721.269531 C 1058.386719 718.152344 1063.429688 678.789062 1029.097656 664.828125 C 1005.582031 655.25 1000.890625 638.007812 1000.003906 619.03125 C 999.007812 597.65625 995.367188 589.316406 973.609375 574.585938 C 933.683594 547.535156 969.269531 515.992188 997 548.195312 C 1027.75 583.882812 1071.242188 584.289062 1101.625 563.25 C 1126.421875 546.089844 1149.980469 538.984375 1181.558594 543.84375 C 1251.222656 554.558594 1273.65625 487.582031 1228.054688 455.253906 C 1196.28125 432.726562 1198.175781 398.488281 1226.089844 381.847656 C 1250.925781 367.03125 1258.300781 350.640625 1249.550781 329.253906 C 1240.375 306.796875 1246.234375 289.988281 1270.128906 280.523438 C 1303.128906 267.433594 1291.300781 232.167969 1255.855469 233.742188 C 1227.214844 235.003906 1215.441406 218.011719 1214.640625 197.3125 C 1213.304688 162.777344 1194.523438 140.28125 1145.117188 149.492188 C 1081.902344 161.289062 1084.359375 103.933594 1121.839844 108.597656 C 1155.765625 112.824219 1160.867188 80.621094 1121.277344 73.332031 C 1082.015625 66.101562 1031.175781 78.375 981.9375 120.226562 C 950.445312 146.992188 917.289062 145.773438 886.933594 124.089844 C 853.824219 100.4375 828.1875 95.675781 785.917969 112.753906 C 741.414062 130.746094 716.519531 114.171875 701.753906 79.511719 C 691.304688 54.964844 672.984375 40.90625 644.175781 50.132812 C 622.246094 57.140625 608.648438 49.460938 608.828125 27.171875 C 608.941406 14.351562 598.953125 8.351562 588.742188 8.074219 Z M 585.621094 16.148438 C 586.3125 16.105469 587.011719 16.121094 587.644531 16.148438 C 593.25 16.429688 599.011719 19.25 599.277344 25.457031 C 599.542969 32.242188 599.152344 38.574219 601.554688 45.105469 C 606.089844 57.492188 617.777344 64.386719 630.703125 64.515625 C 643.753906 64.640625 656.972656 55.863281 669.601562 62.4375 C 681.992188 68.882812 684.589844 84.175781 689.871094 95.734375 C 695.292969 107.585938 702.683594 118.667969 712.839844 126.96875 C 723.992188 136.066406 737.84375 141.066406 752.171875 141.839844 C 767.792969 142.683594 782.445312 138.539062 797.070312 133.582031 C 809.417969 129.382812 822.203125 126.628906 835.292969 127.753906 C 849.117188 128.875 861.5625 134.535156 873.210938 141.78125 C 886.246094 149.886719 900.109375 156.234375 915.410156 158.496094 C 929.457031 160.558594 943.8125 159.167969 957.1875 154.394531 C 970.671875 149.578125 982.417969 141.503906 993.261719 132.289062 C 1015.78125 113.175781 1040.265625 95.886719 1068.671875 86.800781 C 1081.945312 82.546875 1095.9375 80.03125 1109.886719 81.042969 C 1116.882812 81.550781 1124.003906 82.097656 1130.71875 84.230469 C 1134.949219 85.566406 1143.433594 88.753906 1143.222656 94.328125 C 1142.898438 100.4375 1134.019531 101.5625 1129.425781 101.5625 C 1122.597656 101.535156 1116.207031 99.734375 1109.339844 101.125 C 1096.34375 103.753906 1086.003906 114.859375 1086.132812 128.425781 C 1086.230469 141.222656 1094.925781 152.203125 1106.035156 157.765625 C 1119.367188 164.421875 1134.089844 163.929688 1148.488281 162.46875 C 1160.695312 161.234375 1176.429688 161.09375 1185.914062 170.25 C 1189.46875 173.691406 1192.429688 177.972656 1194.300781 182.550781 C 1196.941406 189.027344 1197.320312 195.78125 1198.527344 202.578125 C 1201.125 216.960938 1208.753906 230.386719 1221.621094 237.898438 C 1228.140625 241.71875 1235.542969 243.753906 1243.058594 244.332031 C 1250.378906 244.890625 1257.710938 243.191406 1264.988281 244.023438 C 1270.605469 244.667969 1276.886719 246.941406 1279.992188 251.984375 C 1283.195312 257.167969 1280.484375 262.855469 1276.140625 266.308594 C 1270.734375 270.621094 1263.710938 271.84375 1257.570312 274.761719 C 1251.292969 277.742188 1245.40625 281.785156 1240.910156 287.121094 C 1231.695312 298.046875 1229.839844 312.792969 1233.199219 326.375 C 1234.503906 331.683594 1237.339844 336.683594 1237.847656 342.171875 C 1238.296875 346.878906 1236.652344 350.992188 1233.507812 354.476562 C 1229.136719 359.320312 1223.351562 362.789062 1217.632812 365.796875 C 1211.761719 368.898438 1206.308594 372.886719 1201.589844 377.5625 C 1192.332031 386.707031 1186.164062 398.757812 1184.621094 411.71875 C 1182.976562 425.59375 1186.644531 439.554688 1193.992188 451.335938 C 1197.753906 457.359375 1202.433594 462.808594 1207.660156 467.613281 C 1212.730469 472.289062 1218.671875 475.925781 1222.789062 481.574219 C 1230.5 492.203125 1229.644531 506.625 1219.289062 515.191406 C 1208.152344 524.363281 1193.570312 522.847656 1180.210938 521.921875 C 1165.320312 520.894531 1150.300781 522.285156 1135.988281 526.640625 C 1121.910156 530.9375 1109.042969 538.054688 1096.960938 546.355469 C 1086.019531 553.871094 1075.105469 561.003906 1061.871094 563.742188 C 1047.570312 566.691406 1032.554688 564.386719 1019.785156 557.308594 C 1013.855469 554.039062 1008.433594 549.839844 1003.867188 544.824219 C 999.652344 540.203125 995.3125 535.921875 989.832031 532.816406 C 979.394531 526.933594 965.460938 525.878906 956.203125 534.601562 C 946.523438 543.714844 948.378906 557.632812 955.472656 567.71875 C 963.085938 578.558594 976.195312 584.0625 983.160156 595.398438 C 985.816406 599.722656 986.492188 604.609375 986.769531 609.59375 C 987.09375 615.480469 987.136719 621.363281 987.628906 627.234375 C 988.753906 640.730469 992.683594 653.804688 1001.84375 664.085938 C 1006.171875 668.957031 1011.425781 673.015625 1017.085938 676.203125 C 1022.746094 679.394531 1029.5625 681.359375 1033.199219 687.171875 C 1036.613281 692.648438 1033.074219 697.160156 1028 699.65625 C 1022.605469 702.328125 1016.664062 702.746094 1010.777344 703.210938 C 996.351562 704.347656 982.09375 706.511719 968.707031 712.269531 C 956.667969 717.453125 945.992188 725.0625 936.058594 733.519531 C 930.609375 738.152344 925.425781 742.871094 919.328125 746.675781 C 913.21875 750.511719 906.601562 753.570312 899.675781 755.621094 C 886.570312 759.5 871.269531 760.410156 858.570312 754.640625 C 845.519531 748.714844 838.890625 735.960938 837.0625 722.253906 C 835.28125 708.757812 832.722656 695.417969 826.34375 683.253906 C 819.742188 670.585938 809.515625 660.628906 797.378906 653.257812 C 787.53125 647.246094 772.808594 643.441406 771.894531 629.75 C 771.445312 623.050781 774.804688 617.628906 778.261719 612.234375 C 782.488281 605.648438 785.972656 598.527344 787.9375 590.929688 C 791.480469 577.265625 789.34375 563.082031 781.632812 551.257812 C 778.160156 545.921875 773.765625 541.175781 768.960938 537.046875 C 763.582031 532.4375 757.765625 528.789062 753.339844 523.15625 C 744.097656 511.386719 742.761719 495.910156 748.984375 482.429688 C 751.921875 476.082031 756.273438 471.066406 760.867188 465.898438 C 765.28125 460.941406 769.144531 455.449219 772.207031 449.550781 C 778.078125 438.21875 780.914062 424.386719 774.648438 412.574219 C 768.835938 401.621094 758.058594 395.441406 746.046875 393.476562 C 739.894531 392.449219 733.546875 392.464844 727.363281 393.167969 C 720.875 393.910156 714.835938 395.808594 708.554688 397.449219 C 693.859375 401.296875 678.042969 402.503906 663.109375 399.289062 C 649.289062 396.328125 637.429688 389.164062 626.964844 379.824219 C 616.992188 370.976562 608.113281 360.949219 597.253906 353.128906 C 585.777344 344.855469 572.558594 339.015625 558.550781 336.78125 C 544.113281 334.476562 529.390625 335.996094 515.371094 339.84375 C 502.304688 343.421875 488.890625 346.105469 475.910156 340.515625 C 463.492188 335.125 455.878906 323.707031 454.234375 310.449219 C 453.335938 303.257812 454.429688 296.054688 454.164062 288.835938 C 453.910156 281.363281 452.773438 273.894531 450.804688 266.675781 C 446.972656 252.671875 439.847656 239.894531 430.902344 228.53125 C 426.417969 222.84375 421.53125 217.519531 416.5 212.3125 C 411.640625 207.285156 406.554688 202.566406 402.410156 196.875 C 385.527344 173.734375 384.992188 142.191406 401.976562 118.878906 C 407.820312 110.886719 414.957031 103.894531 421.222656 96.226562 C 428.273438 87.574219 434.355469 78.292969 438.484375 67.886719 C 440.609375 62.519531 442.320312 57.027344 443.824219 51.46875 C 445.074219 46.832031 445.863281 41.847656 448.53125 37.761719 C 450.59375 34.601562 454.710938 31.988281 457.167969 36.285156 C 458.96875 39.433594 458.519531 44.121094 456.988281 47.253906 C 453.855469 57.226562 450.75 67.492188 454.234375 77.800781 C 456.328125 84.019531 460.472656 89.148438 462.746094 95.257812 C 464.8125 100.789062 464.9375 106.125 463.476562 111.84375 C 460.230469 124.578125 453.222656 136.445312 447.183594 148.019531 C 440.636719 160.574219 437.082031 175.851562 438.796875 189.96875 C 442.363281 219.460938 470.460938 238.824219 499.257812 236.550781 C 513.332031 235.441406 527.226562 229.246094 536.246094 218.195312 C 545.082031 207.367188 547.90625 193.253906 545.921875 179.617188 C 543.789062 164.898438 536.667969 152.398438 529.332031 139.761719 C 522.886719 128.679688 515.691406 115.449219 515.664062 102.292969 C 515.664062 95.875 517.195312 89.707031 522.773438 85.945312 C 528.195312 82.292969 534.964844 81.449219 541.332031 81.101562 C 554.03125 80.410156 569.859375 79.316406 580.046875 70.765625 C 589.992188 62.394531 587.140625 49.910156 581.210938 40.09375 C 578.289062 35.246094 573.375 29.9375 574.171875 23.800781 C 574.847656 18.535156 580.761719 16.429688 585.621094 16.148438 Z M 986.589844 51.355469 C 983.792969 51.425781 980.714844 51.847656 977.402344 52.757812 C 945.402344 61.636719 955.234375 93.359375 987.753906 79.511719 C 1011.917969 69.234375 1006.144531 50.863281 986.589844 51.355469 Z M 988.359375 60.046875 C 991.492188 59.878906 994.566406 60.355469 996.449219 62.183594 C 998.417969 64.105469 995.609375 67.644531 994.300781 69.050781 C 991.433594 72.082031 987.53125 74.234375 983.652344 75.652344 C 980.5625 76.789062 977.273438 77.476562 973.972656 77.433594 C 971.066406 77.390625 966.105469 76.621094 965.277344 73.152344 C 964.589844 70.300781 967.636719 67.617188 969.6875 66.171875 C 972.710938 64.023438 976.292969 62.632812 979.847656 61.636719 C 982.050781 61.015625 985.238281 60.21875 988.359375 60.046875 " fill-opacity="1" fill-rule="nonzero"/><path fill="#4b5db5" d="M 586.984375 5.363281 C 580.859375 5.644531 574.59375 7.761719 570.210938 12.101562 C 565.449219 16.78125 564.1875 23.421875 565.984375 29.726562 C 567.867188 36.355469 572.558594 41.144531 575.957031 46.929688 C 578.710938 51.609375 581.550781 58.335938 577.125 62.914062 C 572.894531 67.324219 565.5625 68.460938 559.789062 69.21875 C 552.777344 70.144531 545.726562 70.203125 538.660156 70.203125 C 524.753906 70.214844 509.738281 74.640625 503.753906 88.445312 C 498.316406 100.972656 501.671875 115.914062 506.015625 128.246094 C 508.386719 135 511.351562 141.53125 514.652344 147.890625 C 518.023438 154.410156 521.804688 160.65625 524.386719 167.554688 C 528.96875 179.757812 530.765625 194.953125 521.453125 205.515625 C 512.828125 215.273438 498.203125 217.691406 485.925781 215.300781 C 472.847656 212.761719 461.285156 204.09375 457.691406 190.9375 C 453.785156 176.710938 459.261719 163.03125 464.488281 149.96875 C 469.433594 137.613281 474.632812 124.648438 475.574219 111.222656 C 476.007812 105.074219 475.375 98.726562 473.242188 92.910156 C 470.9375 86.648438 466.597656 81.730469 463.632812 75.832031 C 459.164062 66.984375 461.46875 58.363281 463.996094 49.390625 C 465.457031 44.152344 465.808594 38.140625 463.015625 33.28125 C 460.429688 28.800781 455.316406 26.511719 450.273438 27.957031 C 443.796875 29.8125 439.808594 36.285156 437.585938 42.226562 C 435.085938 48.910156 433.035156 55.679688 429.875 62.113281 C 424.367188 73.304688 416.011719 82.238281 407.398438 91.085938 C 398.351562 100.355469 389.613281 109.511719 383.195312 120.898438 C 368.710938 146.628906 367.839844 177.945312 382.15625 203.984375 C 385.609375 210.246094 389.824219 216.132812 394.65625 221.425781 C 399.378906 226.59375 404.363281 231.4375 408.675781 236.972656 C 417.371094 248.152344 423.90625 261.027344 425.773438 275.183594 C 426.757812 282.585938 426.308594 289.847656 425.40625 297.21875 C 424.507812 304.480469 424.453125 311.839844 425.464844 319.085938 C 427.429688 333.128906 433.542969 346.554688 443.65625 356.609375 C 453.433594 366.34375 466.398438 372.242188 479.984375 374.25 C 495.085938 376.453125 509.496094 373.574219 523.898438 369.164062 C 537.382812 365.023438 551.867188 363.519531 565.492188 367.945312 C 579.257812 372.394531 589.613281 381.933594 599.910156 391.636719 C 610.21875 401.324219 622.21875 409.050781 635.617188 413.671875 C 649.175781 418.375 663.644531 419.695312 677.886719 418.570312 C 692.257812 417.421875 705.859375 413.628906 719.609375 409.570312 C 731.691406 406.003906 747.648438 403.265625 758.929688 410.609375 C 770.6875 418.261719 765.363281 433.105469 759.238281 442.628906 C 752.003906 453.933594 741.382812 462.375 735.160156 474.410156 C 729.105469 486.121094 726.761719 499.617188 729.402344 512.609375 C 732.367188 527.117188 741.046875 538.828125 752.3125 548.054688 C 763.03125 556.832031 771.195312 569.148438 767.078125 583.445312 C 765.027344 590.636719 760.757812 596.492188 756.484375 602.488281 C 752.496094 608.078125 749.519531 614.382812 748.027344 621.097656 C 744.898438 635.195312 749.109375 649.929688 758.988281 660.40625 C 768.695312 670.6875 783.234375 673.816406 792.742188 684.40625 C 802.15625 694.898438 804.5 709.207031 805.300781 722.800781 C 806.355469 737.578125 810.683594 752.222656 819.449219 764.300781 C 837.132812 788.679688 868.558594 796.757812 897.175781 791.125 C 911.644531 788.273438 925.425781 782.207031 937.546875 773.851562 C 943.644531 769.652344 949.363281 764.863281 954.574219 759.597656 C 959.644531 754.472656 964.535156 749.234375 970.070312 744.597656 C 979.636719 736.59375 990.550781 731.46875 1002.785156 729.109375 C 1009.457031 727.816406 1016.242188 727.703125 1022.929688 726.523438 C 1029.871094 725.300781 1036.726562 722.941406 1042.597656 718.996094 C 1055.015625 710.667969 1060.984375 695.289062 1054.847656 681.164062 C 1052.207031 675.09375 1047.753906 669.96875 1042.414062 666.109375 C 1036.488281 661.808594 1029.476562 659.914062 1023.238281 656.25 C 1010.539062 648.761719 1005.609375 635.898438 1004.5 621.769531 C 1003.992188 615.367188 1003.796875 608.992188 1002.113281 602.726562 C 1000.242188 595.859375 996.632812 589.921875 991.574219 584.921875 C 981.855469 575.316406 967.386719 570.273438 960.460938 557.984375 C 957.410156 552.550781 956.46875 545.34375 961.316406 540.585938 C 964.941406 536.960938 970.546875 536.175781 975.40625 537.046875 C 989.003906 539.445312 996.4375 552.351562 1006.085938 560.792969 C 1016.75 570.105469 1029.503906 576.984375 1043.398438 579.964844 C 1057.261719 582.925781 1071.789062 582.011719 1085.230469 577.503906 C 1098.605469 573.023438 1109.167969 563.867188 1121.796875 557.914062 C 1132.867188 552.691406 1144.824219 549.65625 1157.074219 549.222656 C 1169.644531 548.785156 1181.710938 551.988281 1194.199219 552.351562 C 1218.882812 553.054688 1244.800781 542.648438 1255.335938 518.914062 C 1261.195312 505.714844 1261.070312 490.460938 1255.574219 477.164062 C 1252.722656 470.265625 1248.507812 463.960938 1243.382812 458.554688 C 1238.632812 453.539062 1232.902344 449.945312 1227.648438 445.5625 C 1216.578125 436.394531 1208.402344 422.167969 1212.632812 407.492188 C 1214.585938 400.765625 1218.898438 395.007812 1224.277344 390.597656 C 1229.855469 386.003906 1236.316406 382.691406 1241.792969 377.914062 C 1252.078125 368.941406 1259.242188 356.847656 1258.089844 342.832031 C 1256.980469 329.324219 1247.160156 317.160156 1250.925781 303.214844 C 1252.765625 296.53125 1257.625 291.390625 1263.359375 287.726562 C 1268.667969 284.339844 1274.777344 282.585938 1279.949219 278.976562 C 1291.171875 271.167969 1296.328125 256.929688 1288.476562 244.808594 C 1284.90625 239.316406 1279.300781 235.355469 1273.21875 233.054688 C 1266.421875 230.484375 1259.691406 230.539062 1252.570312 230.300781 C 1239.183594 229.867188 1226.777344 223.8125 1222.3125 210.472656 C 1220.132812 203.941406 1220.527344 197.257812 1219.921875 190.5 C 1219.304688 183.519531 1217.886719 176.542969 1215.144531 170.054688 C 1209.722656 157.21875 1199.074219 148.199219 1185.617188 144.59375 C 1171.386719 140.757812 1156.832031 142.765625 1142.617188 145.449219 C 1130.113281 147.808594 1113.34375 148.960938 1103.425781 139.269531 C 1099 134.929688 1097.214844 128.539062 1099.195312 122.613281 C 1101.316406 116.28125 1107.1875 112.363281 1113.59375 111.28125 C 1120.253906 110.15625 1126.953125 112.039062 1133.683594 110.914062 C 1139.933594 109.875 1146.453125 106.882812 1149.542969 101.054688 C 1156.285156 88.359375 1142.222656 77.292969 1131.84375 73.320312 C 1119.101562 68.445312 1104.535156 67.800781 1091.046875 68.363281 C 1061.773438 69.585938 1033.4375 79.570312 1008.417969 94.511719 C 1002.320312 98.148438 996.4375 102.054688 990.71875 106.265625 C 985.015625 110.453125 979.761719 115.242188 974.113281 119.480469 C 962.59375 128.148438 948.742188 133.988281 934.175781 134.003906 C 920.605469 134.015625 907.613281 129.003906 896.386719 121.628906 C 890.207031 117.585938 884.488281 112.953125 878.195312 109.074219 C 872.027344 105.285156 865.554688 101.941406 858.769531 99.398438 C 845.800781 94.539062 832.050781 93.191406 818.351562 95.117188 C 811.285156 96.113281 804.359375 97.867188 797.574219 100.074219 C 790.539062 102.375 783.78125 105.425781 776.8125 107.910156 C 763.75 112.585938 748.757812 115.3125 735.527344 109.691406 C 722.335938 104.105469 713.792969 91.5625 707.910156 79.023438 C 701.714844 65.835938 693.46875 53.082031 679.730469 46.820312 C 673.097656 43.773438 665.792969 42.605469 658.53125 43.082031 C 651.421875 43.546875 645.015625 45.960938 638.132812 47.550781 C 632.359375 48.882812 625.546875 49.570312 620.195312 46.441406 C 615.65625 43.773438 613.464844 38.773438 612.59375 33.773438 C 611.441406 27.1875 612.453125 20.78125 608.492188 14.910156 C 604.304688 8.71875 596.917969 5.65625 589.625 5.363281 C 588.753906 5.332031 587.871094 5.320312 586.984375 5.363281 Z M 586.621094 10.753906 C 595.230469 10.460938 604.136719 14.699219 605.488281 23.96875 C 605.976562 27.339844 605.515625 30.753906 605.921875 34.136719 C 606.34375 37.71875 607.285156 41.3125 608.914062 44.542969 C 612.242188 51.074219 618.394531 55.148438 625.574219 56.242188 C 638.738281 58.238281 650.636719 50.371094 663.796875 51.648438 C 677.929688 53.054688 687.820312 63.476562 693.820312 75.652344 C 697.035156 82.195312 699.4375 89.0625 703.0625 95.425781 C 706.503906 101.449219 710.59375 107.109375 715.566406 111.953125 C 725.863281 121.996094 739.488281 127.234375 753.84375 127.316406 C 761.472656 127.375 769.042969 126.097656 776.390625 124.074219 C 783.726562 122.066406 790.664062 119.058594 797.886719 116.671875 C 811.0625 112.320312 824.914062 109.691406 838.804688 111.351562 C 852.335938 112.964844 864.792969 118.722656 876.230469 125.914062 C 882.3125 129.734375 888.085938 133.945312 894.476562 137.246094 C 900.730469 140.449219 907.375 143.03125 914.214844 144.648438 C 928.9375 148.144531 944.261719 146.953125 958.3125 141.347656 C 972.019531 135.871094 982.613281 126.488281 994.019531 117.472656 C 1005.230469 108.597656 1017.144531 100.566406 1029.800781 93.894531 C 1054.636719 80.792969 1083.039062 72.503906 1111.320312 75.03125 C 1122.78125 76.085938 1139.203125 78.082031 1145.679688 89.117188 C 1148.898438 94.609375 1146.355469 100.578125 1141.085938 103.570312 C 1135.4375 106.785156 1128.429688 106.871094 1122.164062 106.011719 C 1108.609375 104.1875 1093.5625 111.183594 1092.339844 126.222656 C 1091.1875 140.335938 1103.269531 150.265625 1115.800781 153.46875 C 1122.699219 155.238281 1129.960938 155.488281 1137.054688 154.941406 C 1144.34375 154.367188 1151.523438 152.78125 1158.855469 152.429688 C 1171.78125 151.796875 1185.898438 153.707031 1195.675781 162.960938 C 1200.523438 167.582031 1203.894531 173.507812 1205.957031 179.855469 C 1208.09375 186.414062 1208.542969 193.015625 1209.273438 199.8125 C 1210.621094 212.550781 1216.464844 224.894531 1227.761719 231.59375 C 1233.480469 234.976562 1240.039062 236.648438 1246.628906 237.15625 C 1253.691406 237.714844 1260.773438 236.4375 1267.769531 237.953125 C 1279.808594 240.582031 1291.777344 252.082031 1284.851562 265.015625 C 1281.734375 270.859375 1275.789062 274.695312 1269.792969 277.082031 C 1263.203125 279.707031 1256.839844 282.601562 1251.53125 287.429688 C 1241.683594 296.390625 1239.195312 309.4375 1242.160156 322.078125 C 1243.648438 328.398438 1246.796875 334.183594 1247.738281 340.628906 C 1248.761719 347.636719 1247.0625 354.460938 1242.960938 360.21875 C 1234.519531 372.042969 1220.0625 376.242188 1210.3125 386.550781 C 1201.5625 395.820312 1196.871094 408.320312 1198.0625 421.085938 C 1199.382812 435.199219 1207.449219 447.683594 1217.96875 456.839844 C 1222.28125 460.605469 1227.128906 463.667969 1231.132812 467.796875 C 1234.839844 471.601562 1237.972656 476.011719 1240.207031 480.84375 C 1244.785156 490.800781 1245.222656 502.398438 1240.753906 512.484375 C 1235.066406 525.375 1222.675781 533.335938 1209.203125 536.1875 C 1194.664062 539.265625 1180.492188 535.515625 1165.894531 535.445312 C 1152.085938 535.386719 1138.417969 538.027344 1125.660156 543.351562 C 1119.03125 546.101562 1112.683594 549.515625 1106.613281 553.320312 C 1101.191406 556.71875 1096.105469 560.527344 1090.5 563.617188 C 1077.6875 570.652344 1063.035156 574.148438 1048.414062 572.855469 C 1034.421875 571.621094 1021.074219 566.046875 1010.078125 557.367188 C 999.316406 548.882812 992.09375 535.976562 977.722656 533 C 966.613281 530.65625 953.957031 536.734375 953.660156 549.222656 C 953.265625 563.769531 966.835938 572.503906 976.9375 580.328125 C 982.136719 584.359375 987.304688 588.910156 990.648438 594.652344 C 993.878906 600.1875 994.890625 606.476562 995.367188 612.769531 C 996.40625 626.28125 996.578125 639.832031 1004.316406 651.585938 C 1008.136719 657.414062 1013.40625 662.117188 1019.375 665.671875 C 1025.472656 669.308594 1032.273438 671.277344 1037.695312 676.023438 C 1042.527344 680.234375 1046.164062 686.21875 1046.023438 692.789062 C 1045.855469 699.207031 1042.089844 704.65625 1036.964844 708.28125 C 1025.542969 716.34375 1010.765625 714.882812 997.628906 717.28125 C 983.667969 719.851562 970.910156 725.484375 959.601562 734.066406 C 947.648438 743.109375 937.984375 754.667969 925.046875 762.476562 C 901.515625 776.6875 868.40625 782.25 844.4375 765.832031 C 832.328125 757.546875 825.039062 744.359375 822.273438 730.148438 C 820.839844 722.832031 820.585938 715.375 819.140625 708.042969 C 817.820312 701.355469 815.839844 694.785156 812.777344 688.691406 C 806.539062 676.304688 795.945312 667.425781 783.863281 661.023438 C 777.769531 657.765625 771.910156 655.179688 767.261719 649.871094 C 762.527344 644.492188 759.6875 637.585938 759.476562 630.410156 C 759.296875 623.300781 761.65625 616.40625 765.421875 610.453125 C 769.15625 604.527344 773.1875 599.035156 775.773438 592.449219 C 780.902344 579.386719 779.59375 565.496094 771.417969 553.996094 C 767.203125 548.070312 761.796875 543.535156 756.175781 538.996094 C 750.542969 534.460938 745.640625 528.914062 742.214844 522.523438 C 735.121094 509.363281 735.148438 493.832031 741.230469 480.28125 C 746.738281 468.007812 757.328125 459.636719 764.378906 448.386719 C 770.5625 438.472656 775.351562 425.269531 769.339844 414.164062 C 763.410156 403.207031 750.359375 399.542969 738.660156 399.472656 C 725.539062 399.386719 713.683594 404.261719 701.039062 406.945312 C 687.734375 409.753906 673.925781 410.820312 660.425781 408.769531 C 646.070312 406.59375 632.765625 400.679688 621.164062 392 C 610.050781 383.671875 601.160156 372.789062 589.808594 364.757812 C 577.980469 356.371094 564.226562 351.21875 549.6875 350.542969 C 542.269531 350.207031 534.824219 350.964844 527.578125 352.511719 C 520.707031 353.957031 514.121094 356.441406 507.234375 357.832031 C 493.484375 360.628906 478.703125 359.96875 466.074219 353.421875 C 453.785156 347.0625 445.0625 335.6875 441.449219 322.386719 C 439.609375 315.589844 439.0625 308.46875 439.496094 301.445312 C 439.90625 294.734375 440.523438 288.21875 439.976562 281.492188 C 438.90625 268.175781 434.453125 255.410156 427.542969 244.023438 C 423.707031 237.6875 419.199219 231.832031 414.308594 226.257812 C 409.773438 221.074219 404.6875 216.398438 400.164062 211.203125 C 381.367188 189.617188 375.355469 159.84375 385.890625 133.019531 C 390.949219 120.167969 399.347656 110.101562 408.621094 100.074219 C 417.078125 90.929688 425.605469 81.660156 431.460938 70.566406 C 434.511719 64.796875 436.871094 58.644531 438.878906 52.449219 C 440.761719 46.652344 441.871094 40.359375 445.679688 35.429688 C 448.894531 31.257812 454.835938 28.535156 458.96875 33.226562 C 462.507812 37.242188 462.15625 43.546875 460.5 48.28125 C 457.296875 58.796875 454.878906 68.953125 460.007812 79.332031 C 463.042969 85.496094 467.339844 90.734375 469.082031 97.503906 C 470.667969 103.625 470.207031 109.945312 468.773438 116.054688 C 462.578125 142.429688 440.902344 166.554688 449.234375 195.039062 C 457.199219 222.269531 491.195312 233.558594 515.75 221.859375 C 528.109375 215.960938 536.230469 204.304688 537.257812 190.628906 C 538.339844 176.191406 532.492188 161.992188 525.371094 149.730469 C 514.511719 131.335938 493.457031 89.527344 524.261719 78.277344 C 530.808594 75.890625 537.621094 75.875 544.476562 75.59375 C 551.332031 75.300781 558.203125 74.667969 564.875 73.082031 C 570.914062 71.648438 577.996094 69.234375 581.351562 63.585938 C 584.808594 57.773438 582.628906 50.835938 579.636719 45.34375 C 576.351562 39.292969 571.152344 34.234375 569.902344 27.226562 C 568.722656 20.640625 572.402344 15.09375 578.417969 12.523438 C 580.929688 11.457031 583.753906 10.851562 586.621094 10.753906 Z M 985.269531 48.53125 C 982.09375 48.628906 979.101562 49.121094 976.628906 49.808594 C 966.851562 52.507812 954.699219 59.808594 955.304688 71.480469 C 956.007812 84.808594 971.726562 86.199219 981.644531 83.488281 C 991.335938 80.832031 1006.425781 73.992188 1005.960938 61.929688 C 1005.566406 51.257812 994.777344 48.210938 985.269531 48.53125 Z M 987.769531 54.347656 C 993.65625 54.21875 999.640625 55.707031 1001.183594 61.328125 C 1003.613281 70.105469 991.363281 76.4375 984.890625 78.839844 C 978.019531 81.382812 965.699219 83.585938 961.316406 75.523438 C 955.808594 65.398438 970.730469 57.816406 978.214844 55.75 C 980.703125 55.0625 984.242188 54.417969 987.769531 54.347656 " fill-opacity="1" fill-rule="nonzero"/><g fill="#ffffff" fill-opacity="1"><g transform="translate(303.325206, 565.983197)"><g><path d="M 55.875 -6.609375 L 19.6875 -80.71875 L 19.6875 0 L 10.171875 0 L 10.171875 -92.484375 L 24.4375 -92.484375 L 56.015625 -26.8125 L 87.453125 -92.484375 L 101.71875 -92.484375 L 101.71875 0 L 92.078125 0 L 92.078125 -80.84375 Z M 55.875 -6.609375 "/></g></g></g><g fill="#ffffff" fill-opacity="1"><g transform="translate(415.223098, 565.983197)"><g><path d="M 29.203125 1.1875 C 21.972656 1.1875 16.085938 -0.660156 11.546875 -4.359375 C 7.015625 -8.054688 4.75 -12.859375 4.75 -18.765625 C 4.75 -24.921875 7.128906 -29.828125 11.890625 -33.484375 C 16.648438 -37.140625 23.078125 -38.96875 31.171875 -38.96875 C 34.703125 -38.96875 38.117188 -38.570312 41.421875 -37.78125 C 44.722656 -36.988281 47.78125 -35.890625 50.59375 -34.484375 L 50.59375 -43.203125 C 50.59375 -48.484375 49.09375 -52.46875 46.09375 -55.15625 C 43.101562 -57.84375 38.75 -59.1875 33.03125 -59.1875 C 29.769531 -59.1875 26.488281 -58.722656 23.1875 -57.796875 C 19.882812 -56.867188 16.25 -55.394531 12.28125 -53.375 L 8.59375 -60.90625 C 13.34375 -63.195312 17.742188 -64.867188 21.796875 -65.921875 C 25.847656 -66.984375 29.898438 -67.515625 33.953125 -67.515625 C 42.316406 -67.515625 48.765625 -65.53125 53.296875 -61.5625 C 57.835938 -57.601562 60.109375 -51.921875 60.109375 -44.515625 L 60.109375 0 L 50.59375 0 L 50.59375 -6.46875 C 47.601562 -3.914062 44.320312 -2 40.75 -0.71875 C 37.1875 0.550781 33.335938 1.1875 29.203125 1.1875 Z M 14.140625 -19.03125 C 14.140625 -15.320312 15.703125 -12.300781 18.828125 -9.96875 C 21.953125 -7.632812 25.976562 -6.46875 30.90625 -6.46875 C 34.875 -6.46875 38.488281 -7.082031 41.75 -8.3125 C 45.007812 -9.550781 47.957031 -11.492188 50.59375 -14.140625 L 50.59375 -26.546875 C 47.863281 -28.398438 44.9375 -29.742188 41.8125 -30.578125 C 38.6875 -31.421875 35.226562 -31.84375 31.4375 -31.84375 C 26.15625 -31.84375 21.953125 -30.675781 18.828125 -28.34375 C 15.703125 -26.007812 14.140625 -22.90625 14.140625 -19.03125 Z M 14.140625 -19.03125 "/></g></g></g><g fill="#ffffff" fill-opacity="1"><g transform="translate(483.392303, 565.983197)"><g><path d="M 8.328125 0 L 8.328125 -66.1875 L 18.09375 -66.1875 L 18.09375 -56.8125 C 20.03125 -60.238281 22.582031 -62.898438 25.75 -64.796875 C 28.925781 -66.691406 32.539062 -67.640625 36.59375 -67.640625 C 37.820312 -67.640625 38.921875 -67.570312 39.890625 -67.4375 C 40.859375 -67.3125 41.828125 -67.070312 42.796875 -66.71875 L 42.796875 -57.734375 C 41.660156 -58.085938 40.519531 -58.375 39.375 -58.59375 C 38.226562 -58.8125 37.082031 -58.921875 35.9375 -58.921875 C 31.882812 -58.921875 28.316406 -57.753906 25.234375 -55.421875 C 22.148438 -53.085938 19.769531 -49.71875 18.09375 -45.3125 L 18.09375 0 Z M 8.328125 0 "/></g></g></g><g fill="#ffffff" fill-opacity="1"><g transform="translate(529.102655, 565.983197)"><g><path d="M 39.234375 -7.65625 C 42.753906 -7.65625 46.144531 -8.359375 49.40625 -9.765625 C 52.664062 -11.179688 55.707031 -13.253906 58.53125 -15.984375 L 64.59375 -9.375 C 61.070312 -6.03125 57.109375 -3.429688 52.703125 -1.578125 C 48.304688 0.265625 43.726562 1.1875 38.96875 1.1875 C 34.300781 1.1875 29.894531 0.304688 25.75 -1.453125 C 21.613281 -3.210938 18.046875 -5.632812 15.046875 -8.71875 C 12.054688 -11.800781 9.679688 -15.457031 7.921875 -19.6875 C 6.160156 -23.914062 5.28125 -28.40625 5.28125 -33.15625 C 5.28125 -37.914062 6.160156 -42.382812 7.921875 -46.5625 C 9.679688 -50.75 12.054688 -54.382812 15.046875 -57.46875 C 18.046875 -60.550781 21.613281 -62.992188 25.75 -64.796875 C 29.894531 -66.609375 34.300781 -67.515625 38.96875 -67.515625 C 43.726562 -67.515625 48.375 -66.585938 52.90625 -64.734375 C 57.445312 -62.878906 61.429688 -60.328125 64.859375 -57.078125 L 58.65625 -49.9375 C 56.007812 -52.664062 52.96875 -54.78125 49.53125 -56.28125 C 46.101562 -57.78125 42.628906 -58.53125 39.109375 -58.53125 C 35.753906 -58.53125 32.578125 -57.867188 29.578125 -56.546875 C 26.585938 -55.222656 24.015625 -53.414062 21.859375 -51.125 C 19.703125 -48.832031 18.003906 -46.144531 16.765625 -43.0625 C 15.535156 -39.976562 14.921875 -36.675781 14.921875 -33.15625 C 14.921875 -29.550781 15.5625 -26.179688 16.84375 -23.046875 C 18.125 -19.921875 19.84375 -17.234375 22 -14.984375 C 24.15625 -12.742188 26.726562 -10.960938 29.71875 -9.640625 C 32.71875 -8.316406 35.890625 -7.65625 39.234375 -7.65625 Z M 39.234375 -7.65625 "/></g></g></g><g fill="#ffffff" fill-opacity="1"><g transform="translate(596.875518, 565.983197)"><g><path d="M 29.203125 1.1875 C 21.972656 1.1875 16.085938 -0.660156 11.546875 -4.359375 C 7.015625 -8.054688 4.75 -12.859375 4.75 -18.765625 C 4.75 -24.921875 7.128906 -29.828125 11.890625 -33.484375 C 16.648438 -37.140625 23.078125 -38.96875 31.171875 -38.96875 C 34.703125 -38.96875 38.117188 -38.570312 41.421875 -37.78125 C 44.722656 -36.988281 47.78125 -35.890625 50.59375 -34.484375 L 50.59375 -43.203125 C 50.59375 -48.484375 49.09375 -52.46875 46.09375 -55.15625 C 43.101562 -57.84375 38.75 -59.1875 33.03125 -59.1875 C 29.769531 -59.1875 26.488281 -58.722656 23.1875 -57.796875 C 19.882812 -56.867188 16.25 -55.394531 12.28125 -53.375 L 8.59375 -60.90625 C 13.34375 -63.195312 17.742188 -64.867188 21.796875 -65.921875 C 25.847656 -66.984375 29.898438 -67.515625 33.953125 -67.515625 C 42.316406 -67.515625 48.765625 -65.53125 53.296875 -61.5625 C 57.835938 -57.601562 60.109375 -51.921875 60.109375 -44.515625 L 60.109375 0 L 50.59375 0 L 50.59375 -6.46875 C 47.601562 -3.914062 44.320312 -2 40.75 -0.71875 C 37.1875 0.550781 33.335938 1.1875 29.203125 1.1875 Z M 14.140625 -19.03125 C 14.140625 -15.320312 15.703125 -12.300781 18.828125 -9.96875 C 21.953125 -7.632812 25.976562 -6.46875 30.90625 -6.46875 C 34.875 -6.46875 38.488281 -7.082031 41.75 -8.3125 C 45.007812 -9.550781 47.957031 -11.492188 50.59375 -14.140625 L 50.59375 -26.546875 C 47.863281 -28.398438 44.9375 -29.742188 41.8125 -30.578125 C 38.6875 -31.421875 35.226562 -31.84375 31.4375 -31.84375 C 26.15625 -31.84375 21.953125 -30.675781 18.828125 -28.34375 C 15.703125 -26.007812 14.140625 -22.90625 14.140625 -19.03125 Z M 14.140625 -19.03125 "/></g></g></g><g fill="#ffffff" fill-opacity="1"><g transform="translate(293.27188, 681.682036)"><g><path d="M 11.671875 0 L 4.71875 -36.640625 L 12.453125 -36.640625 L 17.484375 -7.796875 L 34.65625 -36.640625 L 42.65625 -36.640625 L 20.3125 0 Z M 11.671875 0 "/></g></g></g><g fill="#ffffff" fill-opacity="1"><g transform="translate(333.109533, 681.682036)"><g><path d="M 0.359375 0 L 8.171875 -36.640625 L 35.75 -36.640625 L 34.34375 -30.046875 L 14.1875 -30.046875 L 12.40625 -21.671875 L 25.65625 -21.671875 L 24.28125 -15.28125 L 11.046875 -15.28125 L 9.21875 -6.59375 L 29.578125 -6.59375 L 28.15625 0 Z M 0.359375 0 "/></g></g></g><g fill="#ffffff" fill-opacity="1"><g transform="translate(368.549911, 681.682036)"><g><path d="M 8.171875 -36.640625 L 15.1875 -36.640625 L 27.84375 -12.296875 L 33.03125 -36.640625 L 40.046875 -36.640625 L 32.25 0 L 25.75 0 L 12.71875 -25.125 L 7.375 0 L 0.359375 0 Z M 8.171875 -36.640625 "/></g></g></g><g fill="#ffffff" fill-opacity="1"><g transform="translate(409.225148, 681.682036)"><g><path d="M 0.359375 0 L 8.171875 -36.640625 L 35.75 -36.640625 L 34.34375 -30.046875 L 14.1875 -30.046875 L 12.40625 -21.671875 L 25.65625 -21.671875 L 24.28125 -15.28125 L 11.046875 -15.28125 L 9.21875 -6.59375 L 29.578125 -6.59375 L 28.15625 0 Z M 0.359375 0 "/></g></g></g><g fill="#ffffff" fill-opacity="1"><g transform="translate(444.665528, 681.682036)"><g><path d="M -1.78125 0 L -0.6875 -5.1875 L 23.875 -30.046875 L 4.765625 -30.046875 L 6.171875 -36.640625 L 35.484375 -36.640625 L 34.34375 -31.453125 L 9.734375 -6.59375 L 29.3125 -6.59375 L 27.90625 0 Z M -1.78125 0 "/></g></g></g><g fill="#ffffff" fill-opacity="1"><g transform="translate(478.535446, 681.682036)"><g><path d="M 40.875 -19.890625 C 40.875 -17.097656 40.332031 -14.453125 39.25 -11.953125 C 38.175781 -9.460938 36.722656 -7.289062 34.890625 -5.4375 C 33.054688 -3.59375 30.890625 -2.128906 28.390625 -1.046875 C 25.898438 0.0351562 23.273438 0.578125 20.515625 0.578125 C 18.003906 0.578125 15.664062 0.140625 13.5 -0.734375 C 11.34375 -1.609375 9.476562 -2.8125 7.90625 -4.34375 C 6.332031 -5.875 5.09375 -7.703125 4.1875 -9.828125 C 3.28125 -11.960938 2.828125 -14.269531 2.828125 -16.75 C 2.828125 -19.539062 3.367188 -22.179688 4.453125 -24.671875 C 5.535156 -27.171875 6.988281 -29.34375 8.8125 -31.1875 C 10.644531 -33.039062 12.804688 -34.507812 15.296875 -35.59375 C 17.796875 -36.675781 20.425781 -37.21875 23.1875 -37.21875 C 25.695312 -37.21875 28.035156 -36.78125 30.203125 -35.90625 C 32.367188 -35.03125 34.234375 -33.828125 35.796875 -32.296875 C 37.367188 -30.765625 38.609375 -28.929688 39.515625 -26.796875 C 40.421875 -24.671875 40.875 -22.367188 40.875 -19.890625 Z M 33.296875 -19.421875 C 33.296875 -20.953125 33.03125 -22.390625 32.5 -23.734375 C 31.976562 -25.078125 31.242188 -26.226562 30.296875 -27.1875 C 29.359375 -28.144531 28.242188 -28.894531 26.953125 -29.4375 C 25.660156 -29.976562 24.25 -30.25 22.71875 -30.25 C 21.007812 -30.25 19.40625 -29.910156 17.90625 -29.234375 C 16.40625 -28.554688 15.101562 -27.625 14 -26.4375 C 12.90625 -25.25 12.035156 -23.859375 11.390625 -22.265625 C 10.742188 -20.679688 10.421875 -19 10.421875 -17.21875 C 10.421875 -15.6875 10.691406 -14.25 11.234375 -12.90625 C 11.773438 -11.5625 12.503906 -10.410156 13.421875 -9.453125 C 14.347656 -8.492188 15.460938 -7.742188 16.765625 -7.203125 C 18.078125 -6.660156 19.484375 -6.390625 20.984375 -6.390625 C 22.703125 -6.390625 24.3125 -6.726562 25.8125 -7.40625 C 27.3125 -8.082031 28.609375 -9.015625 29.703125 -10.203125 C 30.804688 -11.390625 31.679688 -12.773438 32.328125 -14.359375 C 32.972656 -15.953125 33.296875 -17.640625 33.296875 -19.421875 Z M 33.296875 -19.421875 "/></g></g></g><g fill="#ffffff" fill-opacity="1"><g transform="translate(522.508633, 681.682036)"><g><path d="M 0.359375 0 L 8.171875 -36.640625 L 15.59375 -36.640625 L 9.21875 -6.703125 L 28.84375 -6.703125 L 27.421875 0 Z M 0.359375 0 "/></g></g></g><g fill="#ffffff" fill-opacity="1"><g transform="translate(557.006726, 681.682036)"><g><path d="M -3.09375 0 L 19.3125 -36.640625 L 27.90625 -36.640625 L 34.859375 0 L 27.21875 0 L 25.546875 -9.625 L 10.671875 -9.625 L 5.03125 0 Z M 14.234375 -15.703125 L 24.5 -15.703125 L 22.1875 -29.203125 Z M 14.234375 -15.703125 "/></g></g></g><g fill="#ffffff" fill-opacity="1"><g transform="translate(596.844382, 681.682036)"><g><path d="M 8.171875 -36.640625 L 15.1875 -36.640625 L 27.84375 -12.296875 L 33.03125 -36.640625 L 40.046875 -36.640625 L 32.25 0 L 25.75 0 L 12.71875 -25.125 L 7.375 0 L 0.359375 0 Z M 8.171875 -36.640625 "/></g></g></g><g fill="#ffffff" fill-opacity="1"><g transform="translate(637.519613, 681.682036)"><g><path d="M -3.09375 0 L 19.3125 -36.640625 L 27.90625 -36.640625 L 34.859375 0 L 27.21875 0 L 25.546875 -9.625 L 10.671875 -9.625 L 5.03125 0 Z M 14.234375 -15.703125 L 24.5 -15.703125 L 22.1875 -29.203125 Z M 14.234375 -15.703125 "/></g></g></g></svg>