<svg xmlns="http://www.w3.org/2000/svg" xmlns:xlink="http://www.w3.org/1999/xlink" width="300" zoomAndPan="magnify" viewBox="0 0 224.87999 67.499998" height="90" preserveAspectRatio="xMidYMid meet" version="1.0"><defs><clipPath id="62eba89d73"><path d="M 4.507812 6 L 38.695312 6 L 38.695312 58.878906 L 4.507812 58.878906 Z M 4.507812 6 " clip-rule="nonzero"/></clipPath><clipPath id="4c3441d775"><path d="M 37.125 6.0625 L 6.070312 6.0625 C 5.238281 6.0625 4.640625 6.738281 4.640625 7.488281 L 4.640625 57.308594 C 4.640625 58.058594 5.238281 58.742188 6.070312 58.742188 L 14.917969 58.742188 C 15.671875 58.742188 16.34375 58.066406 16.34375 57.308594 L 16.34375 39.023438 L 33.449219 39.023438 C 34.203125 39.023438 34.875 38.347656 34.875 37.589844 L 34.875 29.390625 C 34.875 28.636719 34.203125 27.957031 33.449219 27.957031 L 16.34375 27.957031 L 16.34375 17.121094 L 37.125 17.121094 C 37.953125 17.121094 38.550781 16.449219 38.550781 15.6875 L 38.550781 7.488281 C 38.550781 6.738281 37.953125 6.054688 37.125 6.054688 " clip-rule="nonzero"/></clipPath><clipPath id="055da83df4"><path d="M 43.773438 6 L 75 6 L 75 58.878906 L 43.773438 58.878906 Z M 43.773438 6 " clip-rule="nonzero"/></clipPath><clipPath id="dfce684d33"><path d="M 73.566406 47.671875 L 55.707031 47.671875 L 55.707031 7.488281 C 55.707031 6.738281 55.035156 6.054688 54.28125 6.054688 L 45.355469 6.054688 C 44.523438 6.054688 43.929688 6.730469 43.929688 7.488281 L 43.929688 57.308594 C 43.929688 58.058594 44.523438 58.742188 45.355469 58.742188 L 73.566406 58.742188 C 74.394531 58.742188 74.992188 58.066406 74.992188 57.308594 L 74.992188 49.105469 C 74.992188 48.355469 74.394531 47.671875 73.566406 47.671875 " clip-rule="nonzero"/></clipPath><clipPath id="e5389d3352"><path d="M 74.222656 3.050781 L 220.332031 3.050781 L 220.332031 63.953125 L 74.222656 63.953125 Z M 74.222656 3.050781 " clip-rule="nonzero"/></clipPath><clipPath id="0d697abf51"><path d="M 219.945312 53.65625 C 218.898438 50.355469 215.378906 48.535156 212.09375 49.578125 C 203.917969 52.183594 192.910156 52.199219 185.316406 47.648438 C 176.171875 42.179688 180.953125 24.136719 183.84375 16.285156 C 185.035156 13.039062 183.386719 9.433594 180.144531 8.230469 C 176.90625 7.03125 173.3125 8.691406 172.117188 11.945312 C 171.117188 14.648438 170.195312 17.410156 169.296875 20.074219 C 167.445312 25.59375 165.691406 30.816406 163.359375 35.605469 C 160.058594 42.386719 155.703125 47.503906 152.261719 48.640625 C 151.121094 49.023438 150.160156 48.929688 149.035156 48.332031 C 147.914062 47.734375 147.039062 46.71875 146.625 45.511719 C 146 43.683594 146.199219 40.960938 147.191406 37.628906 C 148.007812 34.910156 149 32.101562 150.042969 29.125 C 152.175781 23.097656 154.375 16.867188 155.390625 10.433594 C 155.925781 7.015625 153.601562 3.808594 150.191406 3.265625 C 146.78125 2.722656 143.582031 5.0625 143.046875 8.488281 C 141.324219 19.453125 134.714844 24.933594 127.847656 27.640625 C 125.601562 14.914062 114.625 5.308594 101.273438 5.308594 C 86.269531 5.308594 74.339844 17.425781 74.339844 32.476562 C 74.339844 47.527344 86.269531 59.492188 101.273438 59.492188 C 113.269531 59.492188 123.335938 51.84375 126.894531 41.085938 C 129.460938 40.433594 131.894531 39.597656 134.15625 38.582031 C 133.488281 42.667969 133.699219 46.355469 134.800781 49.570312 C 136.242188 53.789062 139.316406 57.382812 143.238281 59.445312 C 147.347656 61.601562 151.820312 61.988281 156.160156 60.554688 C 162.128906 58.585938 166.832031 53.585938 170.203125 48.6875 C 170.777344 50.082031 171.480469 51.402344 172.320312 52.617188 C 175.078125 56.625 178.929688 58.625 181.976562 59.917969 C 188.105469 62.515625 194.632812 63.824219 201.15625 63.824219 C 206.125 63.824219 211.09375 63.066406 215.875 61.539062 C 219.160156 60.492188 220.980469 56.964844 219.9375 53.664062 M 101.265625 47.449219 C 93.089844 47.449219 86.335938 40.675781 86.335938 32.476562 C 86.335938 24.199219 93.089844 17.347656 101.265625 17.347656 C 109.519531 17.347656 116.269531 24.191406 116.269531 32.476562 C 116.269531 40.675781 109.519531 47.449219 101.265625 47.449219 " clip-rule="nonzero"/></clipPath></defs><g clip-path="url(#62eba89d73)"><g clip-path="url(#4c3441d775)"><path fill="#ff7b71" d="M 0.765625 -0.6875 L 224.070312 -0.6875 L 224.070312 67.691406 L 0.765625 67.691406 Z M 0.765625 -0.6875 " fill-opacity="1" fill-rule="nonzero"/></g></g><g clip-path="url(#055da83df4)"><g clip-path="url(#dfce684d33)"><path fill="#ff7b71" d="M 0.765625 -0.6875 L 224.070312 -0.6875 L 224.070312 67.691406 L 0.765625 67.691406 Z M 0.765625 -0.6875 " fill-opacity="1" fill-rule="nonzero"/></g></g><g clip-path="url(#e5389d3352)"><g clip-path="url(#0d697abf51)"><path fill="#ff7b71" d="M 0.765625 -0.6875 L 224.070312 -0.6875 L 224.070312 67.691406 L 0.765625 67.691406 Z M 0.765625 -0.6875 " fill-opacity="1" fill-rule="nonzero"/></g></g></svg>