<svg xmlns="http://www.w3.org/2000/svg" xmlns:xlink="http://www.w3.org/1999/xlink" width="1920" zoomAndPan="magnify" viewBox="0 0 1440 809.999993" height="1080" preserveAspectRatio="xMidYMid meet" version="1.0"><defs><g/><clipPath id="03ceab2df3"><path d="M 280 3 L 1290.324219 3 L 1290.324219 809.707031 L 280 809.707031 Z M 280 3 " clip-rule="nonzero"/></clipPath></defs><g clip-path="url(#03ceab2df3)"><path fill="#7687ff" d="M 1280.277344 247.039062 C 1276.03125 245.625 1271.667969 245.035156 1267.304688 243.855469 C 1265.773438 242.675781 1264.121094 241.734375 1262.234375 241.261719 C 1258.109375 239.140625 1253.15625 238.433594 1248.554688 239.375 C 1245.84375 239.847656 1243.015625 240.789062 1240.773438 242.441406 C 1239.59375 243.265625 1238.769531 244.328125 1237.707031 245.273438 C 1236.527344 245.859375 1235.347656 246.332031 1234.050781 246.449219 C 1229.101562 246.570312 1223.203125 247.746094 1217.898438 247.039062 C 1217.660156 247.160156 1217.425781 247.277344 1217.191406 247.277344 C 1216.835938 247.277344 1216.484375 247.160156 1216.246094 246.921875 C 1216.246094 246.921875 1216.128906 246.804688 1216.128906 246.804688 C 1216.011719 246.804688 1216.011719 246.804688 1216.011719 246.804688 C 1215.539062 246.804688 1215.183594 246.804688 1214.714844 246.6875 C 1214.597656 246.6875 1214.476562 246.6875 1214.476562 246.6875 C 1214.242188 246.804688 1214.007812 246.921875 1213.652344 247.039062 C 1213.417969 247.039062 1213.296875 247.039062 1213.0625 246.921875 C 1212.828125 246.921875 1212.589844 246.921875 1212.355469 246.804688 C 1212 246.6875 1211.765625 246.6875 1211.410156 246.570312 C 1211.292969 246.570312 1211.175781 246.570312 1211.058594 246.449219 C 1210.941406 246.449219 1210.941406 246.449219 1210.824219 246.449219 C 1210.585938 246.449219 1210.351562 246.332031 1210.113281 246.332031 C 1209.996094 246.332031 1209.761719 246.214844 1209.644531 246.214844 C 1209.644531 246.214844 1209.527344 246.214844 1209.527344 246.214844 C 1209.40625 246.214844 1209.289062 246.214844 1209.171875 246.214844 C 1207.875 246.097656 1206.578125 246.097656 1205.28125 246.570312 C 1205.164062 246.570312 1205.042969 246.570312 1205.042969 246.6875 C 1204.925781 246.6875 1204.925781 246.6875 1204.808594 246.6875 C 1203.746094 246.921875 1202.921875 247.628906 1202.332031 248.457031 C 1200.679688 249.871094 1199.03125 251.285156 1197.496094 252.820312 C 1193.605469 252.582031 1189.949219 253.996094 1186.414062 255.292969 C 1182.285156 256.828125 1178.160156 258.480469 1173.679688 257.535156 C 1168.488281 256.472656 1163.183594 254.46875 1157.875 253.761719 C 1155.046875 252.820312 1152.335938 251.757812 1149.859375 249.988281 C 1148.445312 249.28125 1146.792969 248.691406 1146.910156 246.804688 C 1148.679688 245.625 1150.917969 246.332031 1152.804688 246.449219 C 1155.046875 246.804688 1157.875 246.921875 1160.351562 246.921875 C 1162.121094 247.160156 1163.65625 246.6875 1165.304688 246.214844 C 1167.074219 245.742188 1168.84375 245.152344 1170.730469 245.507812 C 1174.976562 246.449219 1179.929688 246.097656 1183.347656 243.265625 C 1187.476562 239.492188 1190.539062 234.421875 1192.546875 229.234375 C 1193.488281 227.230469 1193.371094 224.988281 1194.078125 222.867188 C 1194.550781 221.570312 1195.730469 220.746094 1196.671875 219.683594 C 1196.789062 219.566406 1196.90625 219.566406 1196.90625 219.449219 C 1197.96875 218.859375 1198.914062 218.03125 1199.738281 217.089844 C 1199.855469 216.972656 1199.972656 216.851562 1200.09375 216.734375 C 1200.5625 216.144531 1200.917969 215.554688 1201.152344 214.964844 C 1202.332031 212.609375 1202.6875 209.894531 1202.332031 207.183594 C 1202.332031 206.828125 1202.332031 206.476562 1202.332031 206.121094 C 1204.335938 203.410156 1206.695312 200.699219 1209.996094 199.636719 C 1212.710938 198.929688 1214.125 196.097656 1214.242188 193.503906 C 1214.476562 189.851562 1213.886719 185.605469 1211.175781 182.890625 C 1207.640625 179.589844 1203.15625 177.113281 1198.441406 175.816406 C 1195.257812 175.109375 1192.425781 174.875 1189.242188 173.8125 C 1186.175781 172.632812 1183.582031 170.511719 1180.871094 168.507812 C 1174.738281 163.082031 1166.484375 159.191406 1158.230469 160.132812 C 1153.867188 161.429688 1149.269531 161.902344 1144.789062 160.371094 C 1134.058594 156.125 1124.269531 149.285156 1112.832031 146.808594 C 1107.878906 145.746094 1102.808594 147.515625 1097.855469 147.871094 C 1091.371094 147.988281 1090.308594 140.675781 1086.300781 137.023438 C 1082.644531 133.128906 1077.339844 131.832031 1073.09375 128.886719 C 1070.96875 127.589844 1068.964844 126.292969 1066.84375 124.996094 C 1065.664062 124.050781 1063.894531 123.109375 1063.660156 121.574219 C 1063.894531 113.203125 1090.191406 115.914062 1096.085938 116.148438 C 1102.574219 116.03125 1109.648438 116.386719 1115.660156 113.675781 C 1118.375 112.257812 1120.851562 110.253906 1123.328125 108.601562 C 1126.511719 106.714844 1129.695312 104.949219 1131.816406 101.882812 C 1134.292969 99.167969 1136.414062 95.160156 1134.292969 91.625 C 1132.996094 89.972656 1130.875 90.089844 1128.867188 90.089844 C 1128.28125 90.089844 1127.691406 90.089844 1127.101562 90.089844 C 1124.152344 90.207031 1121.085938 90.324219 1118.136719 91.152344 C 1112.714844 92.332031 1107.40625 93.746094 1101.746094 93.273438 C 1097.265625 92.921875 1092.785156 92.566406 1088.304688 91.859375 C 1084.175781 91.625 1080.050781 91.859375 1075.921875 91.859375 C 1069.082031 91.976562 1062.363281 93.039062 1055.640625 94.808594 C 1050.21875 95.398438 1045.144531 97.636719 1039.722656 98.460938 C 1036.773438 99.050781 1033.707031 98.933594 1030.761719 98.816406 C 1029.109375 98.816406 1027.457031 98.699219 1025.808594 98.816406 C 1021.5625 98.816406 1017.199219 98.933594 1012.953125 98.226562 C 1009.535156 97.992188 1006.113281 97.285156 1002.578125 96.929688 C 995.855469 96.574219 989.132812 97.519531 983.003906 100.347656 C 977.34375 101.882812 970.976562 102 965.667969 104.710938 C 961.425781 108.015625 966.613281 112.964844 970.503906 113.554688 C 974.277344 114.144531 978.167969 113.554688 982.058594 112.964844 C 985.949219 112.375 989.960938 111.789062 993.851562 112.375 C 988.78125 114.144531 984.535156 116.621094 979.464844 118.273438 C 970.738281 118.390625 962.011719 118.390625 953.289062 119.570312 C 948.570312 120.75 944.324219 122.988281 939.84375 124.757812 C 936.070312 125.703125 933.125 128.179688 929.585938 129.59375 C 927.226562 130.890625 924.988281 132.421875 922.628906 133.601562 C 918.738281 136.078125 915.082031 139.027344 910.601562 140.558594 C 906.472656 142.800781 901.875 143.152344 897.277344 143.742188 C 891.617188 143.742188 885.957031 143.980469 880.414062 143.152344 C 873.21875 141.503906 866.5 138.199219 859.304688 136.785156 C 855.648438 135.726562 851.757812 136.195312 847.984375 135.605469 C 836.546875 133.25 831.710938 121.691406 824.875 113.554688 C 818.386719 106.597656 814.96875 103.296875 805.0625 105.300781 C 802.113281 105.417969 799.167969 105.300781 796.21875 105.539062 C 793.035156 105.65625 789.96875 106.597656 786.785156 106.714844 C 783.011719 106.246094 779.355469 104.828125 775.464844 105.183594 C 771.101562 105.300781 766.621094 105.183594 762.375 106.363281 C 757.070312 107.660156 751.882812 109.902344 746.457031 110.371094 C 743.390625 110.488281 740.324219 110.253906 737.257812 110.136719 C 732.070312 109.78125 726.882812 109.429688 721.8125 110.84375 C 714.617188 113.675781 707.191406 115.5625 700.113281 118.625 C 687.261719 122.28125 675 123.34375 662.734375 117.09375 C 660.257812 115.679688 657.546875 114.617188 655.660156 112.257812 C 652.59375 109.546875 650.824219 105.417969 651.0625 101.292969 C 651.414062 97.402344 652.949219 93.628906 652.828125 89.617188 C 652.710938 84.546875 650.117188 80.183594 647.757812 75.820312 C 644.457031 69.21875 638.796875 63.792969 632.195312 60.492188 C 629.128906 59.078125 625.707031 59.195312 622.40625 59.195312 C 619.929688 59.195312 617.453125 59.3125 615.09375 58.722656 C 612.265625 58.015625 609.90625 56.367188 607.078125 55.539062 C 605.425781 54.949219 604.011719 53.769531 602.242188 53.300781 C 596.226562 51.648438 589.859375 51.882812 583.609375 52.238281 C 580.191406 52.355469 576.773438 52.59375 573.351562 52.355469 C 570.167969 52.003906 566.867188 51.882812 563.917969 50.46875 C 562.976562 49.289062 563.210938 47.519531 563.09375 46.105469 C 562.503906 40.210938 558.964844 35.140625 557.316406 29.597656 C 554.839844 23.703125 553.304688 17.335938 550.828125 11.4375 C 546.347656 0 530.664062 2.121094 522.410156 8.253906 C 516.75 12.734375 515.453125 20.519531 513.921875 27.121094 C 513.09375 30.304688 513.566406 33.488281 513.804688 36.671875 C 514.15625 39.855469 513.566406 43.867188 514.628906 47.167969 C 515.453125 51.292969 519.816406 51.292969 522.882812 50.117188 C 530.3125 47.757812 537.621094 43.628906 545.757812 44.691406 C 547.410156 44.925781 550.359375 45.164062 551.300781 46.933594 C 549.53125 49.761719 546.347656 50.707031 543.753906 52.355469 C 541.867188 53.769531 540.097656 54.949219 538.09375 56.128906 C 536.089844 57.425781 534.4375 59.195312 532.316406 60.257812 C 526.300781 63.203125 519.699219 63.910156 513.566406 66.152344 C 508.378906 68.628906 503.660156 72.046875 498.828125 75.230469 C 495.527344 76.53125 492.105469 76.882812 488.566406 77.472656 C 486.210938 77.945312 483.851562 78.769531 481.492188 78.769531 C 475.949219 79.714844 470.289062 78.886719 464.867188 79.832031 C 455.433594 83.367188 444.820312 83.957031 436.449219 89.617188 C 431.140625 93.15625 426.542969 98.34375 425.011719 104.710938 C 424.421875 107.894531 423.710938 111.078125 422.179688 114.027344 C 420.058594 117.566406 420.527344 121.339844 421.945312 125.113281 C 423.476562 129.003906 424.65625 133.011719 426.542969 136.785156 C 430.316406 143.625 434.089844 150.699219 439.632812 156.359375 C 442.109375 158.953125 445.175781 161.078125 446.707031 164.496094 C 448.476562 168.859375 450.835938 173.105469 451.894531 177.703125 C 453.191406 184.191406 449.300781 189.851562 446.472656 195.273438 C 444.9375 198.574219 443.167969 201.757812 441.992188 205.179688 C 440.929688 208.363281 439.277344 211.191406 436.917969 213.667969 C 432.792969 219.09375 428.195312 225.109375 421.117188 226.40625 C 416.992188 226.996094 412.511719 226.640625 408.621094 225.34375 C 406.496094 224.28125 405.199219 222.042969 403.785156 220.15625 C 400.601562 215.792969 401.074219 210.132812 400.246094 205.0625 C 399.894531 201.878906 399.421875 198.222656 396.828125 196.097656 C 393.761719 194.09375 390.339844 192.796875 387.277344 190.910156 C 385.269531 189.496094 383.382812 187.726562 381.496094 186.195312 C 379.257812 182.539062 379.019531 177.941406 379.609375 173.8125 C 380.4375 171.101562 383.382812 169.449219 385.269531 167.328125 C 389.28125 163.789062 393.40625 160.132812 396.238281 155.535156 C 399.421875 150.820312 401.191406 145.394531 403.785156 140.324219 C 406.261719 133.839844 409.445312 127.117188 409.5625 120.042969 C 409.679688 116.03125 409.207031 112.023438 409.089844 108.015625 C 408.855469 103.0625 409.207031 97.871094 407.792969 93.039062 C 405.671875 87.496094 400.71875 83.839844 397.300781 79.242188 C 392.582031 72.519531 396.472656 63.675781 402.132812 58.839844 C 405.433594 56.011719 408.855469 53.300781 412.273438 50.707031 C 415.929688 48.109375 419.230469 44.925781 423.242188 42.804688 C 423.949219 42.921875 424.65625 42.921875 425.128906 42.921875 C 428.3125 42.570312 430.316406 37.96875 427.957031 35.613281 C 426.070312 33.960938 423.476562 33.960938 421.117188 33.84375 C 418.171875 33.84375 415.105469 33.605469 412.273438 34.433594 C 408.855469 35.847656 405.671875 37.027344 402.488281 39.03125 C 399.421875 40.210938 396.710938 41.625 393.996094 43.394531 C 390.578125 45.164062 387.039062 47.167969 384.5625 50.234375 C 376.425781 62.144531 369 75.46875 356.96875 84.3125 C 346.945312 91.152344 336.453125 97.519531 328.199219 106.597656 C 318.175781 116.621094 310.039062 128.53125 304.023438 141.265625 C 299.660156 147.632812 296.476562 155.300781 296.832031 163.199219 C 297.066406 167.089844 299.425781 170.394531 299.660156 174.285156 C 299.78125 184.898438 295.179688 194.921875 291.054688 204.589844 C 287.988281 210.839844 284.6875 216.972656 282.089844 223.457031 C 280.085938 227.9375 279.734375 233.480469 286.21875 232.773438 C 289.636719 232.183594 292.585938 230.414062 295.535156 228.527344 C 297.304688 227.820312 298.71875 230.179688 300.25 230.769531 C 304.730469 233.480469 309.921875 232.535156 314.636719 231.476562 C 317.113281 234.421875 314.285156 238.785156 315.109375 242.207031 C 315.816406 245.035156 317.46875 247.628906 318.765625 250.222656 C 320.414062 254.46875 322.65625 258.359375 325.484375 261.898438 C 337.277344 279.230469 341.523438 270.152344 347.183594 295.035156 C 348.714844 303.523438 349.660156 306.234375 345.296875 314.136719 C 344 316.375 342.347656 318.617188 342.230469 321.210938 C 341.40625 325.457031 342.820312 329.464844 343.292969 333.710938 C 343.171875 338.308594 342.585938 343.027344 344.117188 347.390625 C 347.773438 354.464844 356.261719 355.761719 363.21875 357.175781 C 365.695312 364.605469 369.351562 371.796875 374.1875 377.929688 C 378.667969 383 385.742188 385.949219 392.582031 385.949219 C 394.941406 386.066406 396.945312 384.769531 399.066406 384.0625 C 399.894531 383.589844 400.71875 383.355469 401.542969 383.707031 C 403.785156 384.769531 405.90625 385.949219 408.382812 385.949219 C 410.625 386.304688 413.21875 386.890625 415.574219 386.539062 C 423.359375 385.714844 430.90625 383.117188 438.804688 383.828125 C 440.339844 384.0625 441.871094 384.179688 443.40625 384.417969 C 444.464844 384.886719 445.410156 385.59375 446.472656 385.832031 C 448.710938 386.304688 450.953125 386.421875 453.074219 386.773438 C 459.089844 387.363281 464.160156 383.355469 468.992188 380.644531 C 471.585938 379.226562 473.121094 376.398438 475.832031 375.101562 C 484.203125 372.859375 491.632812 378.757812 499.652344 380.171875 C 503.78125 380.644531 508.261719 381.351562 512.269531 380.054688 C 514.628906 378.992188 516.988281 377.695312 519.582031 378.046875 C 520.171875 378.167969 520.761719 378.402344 521.230469 378.757812 C 521.347656 379.582031 521.9375 380.289062 522.410156 380.996094 C 523.707031 382.410156 525.003906 383.828125 526.183594 385.359375 C 530.902344 391.019531 535.734375 396.445312 540.335938 402.222656 C 542.8125 405.640625 545.40625 408.941406 548.351562 412.007812 C 554.839844 418.375 561.207031 425.097656 568.398438 430.757812 C 570.523438 432.410156 572.878906 433.707031 575.003906 435.476562 C 575.828125 436.183594 576.652344 436.652344 577.714844 436.890625 C 581.960938 437.832031 585.378906 434.414062 588.445312 432.054688 C 591.746094 429.695312 594.929688 427.101562 598.824219 425.804688 C 604.246094 424.863281 610.023438 425.453125 615.566406 426.277344 C 621.460938 427.339844 626.886719 429.933594 632.78125 431.347656 C 643.867188 434.058594 655.070312 430.167969 665.917969 428.398438 C 672.523438 426.867188 678.183594 422.976562 684.785156 421.441406 C 689.382812 420.734375 693.746094 422.859375 698.226562 423.449219 C 701.882812 424.15625 705.539062 424.15625 709.195312 424.980469 C 710.84375 425.570312 712.730469 425.6875 714.265625 426.75 C 716.035156 428.164062 718.511719 429.460938 719.101562 431.703125 C 719.453125 434.886719 719.453125 438.1875 718.746094 441.253906 C 717.800781 443.847656 716.269531 446.085938 714.5 448.210938 C 698.582031 465.074219 711.789062 468.257812 700.824219 479.8125 C 698.109375 482.40625 694.808594 484.410156 692.214844 487.242188 C 690.328125 489.363281 688.085938 491.722656 687.96875 494.550781 C 687.96875 496.4375 689.265625 498.089844 689.738281 499.859375 C 691.035156 503.632812 692.097656 507.523438 692.332031 511.53125 C 691.507812 514.835938 689.972656 517.902344 688.914062 521.085938 C 687.027344 526.863281 683.488281 532.050781 683.132812 538.183594 C 682.78125 545.140625 685.019531 551.742188 686.90625 558.347656 C 688.085938 562.472656 687.496094 566.835938 688.792969 570.964844 C 690.5625 574.148438 692.332031 577.332031 694.574219 580.160156 C 695.871094 581.929688 696.222656 584.171875 697.285156 586.175781 C 698.347656 588.535156 700.351562 590.183594 702.238281 591.71875 C 707.660156 595.84375 715.445312 597.613281 718.746094 604.097656 C 719.453125 606.339844 718.980469 608.933594 719.925781 611.175781 C 720.75 613.0625 722.402344 614.359375 723.933594 615.773438 C 728.296875 621.199219 724.761719 625.679688 720.867188 629.921875 C 718.390625 633.109375 715.5625 636.054688 713.085938 639.238281 C 710.609375 642.421875 708.839844 646.195312 706.011719 649.144531 C 702.945312 652.800781 699.289062 655.867188 696.8125 659.992188 C 694.808594 663.292969 696.929688 667.539062 700.113281 669.191406 C 701.648438 670.015625 703.417969 670.605469 704.949219 671.3125 C 707.660156 672.726562 709.902344 674.734375 710.84375 677.796875 C 712.496094 680.746094 715.5625 682.515625 717.921875 684.757812 C 720.042969 686.171875 721.339844 688.53125 723.582031 689.707031 C 727 691.59375 729.832031 694.191406 731.835938 697.492188 C 732.894531 699.023438 734.3125 700.4375 735.492188 701.972656 C 737.140625 705.15625 737.847656 708.929688 736.90625 712.46875 C 735.492188 717.65625 737.496094 722.960938 738.910156 727.914062 C 739.382812 729.800781 739.5 731.6875 739.972656 733.574219 C 741.03125 736.523438 742.328125 739.234375 743.390625 742.183594 C 746.222656 747.960938 749.285156 753.738281 751.761719 759.632812 C 753.886719 765.175781 753.769531 771.664062 757.660156 776.496094 C 762.257812 782.394531 768.507812 786.636719 774.875 790.53125 C 776.410156 791.355469 777.234375 792.886719 778.296875 794.183594 C 779.828125 796.191406 781.714844 797.957031 783.71875 799.492188 C 785.132812 800.671875 786.785156 801.613281 788.671875 802.203125 C 792.210938 803.734375 795.628906 805.742188 799.519531 806.332031 C 805.769531 807.15625 812.375 808.925781 818.742188 807.507812 C 824.402344 804.914062 829.589844 801.378906 833.128906 796.070312 C 834.777344 794.304688 835.957031 792.0625 838.082031 790.882812 C 842.324219 790.53125 846.570312 791.472656 849.519531 794.773438 C 849.519531 800.316406 848.8125 809.277344 856.476562 809.867188 C 857.066406 809.984375 857.65625 809.984375 858.246094 809.984375 C 862.960938 809.984375 866.617188 806.332031 868.738281 802.203125 C 870.273438 800.316406 871.570312 798.195312 872.984375 796.1875 C 874.753906 794.65625 876.640625 793.003906 878.644531 791.828125 C 882.652344 789.703125 886.308594 786.757812 890.082031 784.28125 C 893.855469 782.628906 897.394531 780.625 901.050781 778.855469 C 903.644531 777.792969 906.472656 777.203125 908.832031 775.554688 C 912.25 773.550781 915.316406 771.425781 918.617188 769.1875 C 920.386719 767.890625 922.511719 766.945312 924.632812 766.238281 C 928.761719 764.351562 933.003906 762.347656 937.25 760.8125 C 942.792969 758.101562 948.6875 756.097656 953.757812 752.441406 C 958.359375 748.785156 961.542969 743.480469 964.488281 738.410156 C 966.847656 733.808594 968.617188 729.09375 970.503906 724.257812 C 972.980469 721.074219 975.691406 717.183594 980.054688 716.59375 C 987.484375 715.652344 995.03125 714.472656 1001.75 710.933594 C 1006.351562 708.457031 1010.59375 704.921875 1013.425781 700.558594 C 1015.3125 698.199219 1014.957031 694.898438 1014.015625 692.183594 C 1013.542969 690.769531 1012.480469 689.707031 1011.183594 689 C 1007.765625 686.878906 1003.757812 686.054688 999.863281 686.996094 C 997.390625 687.230469 995.382812 688.765625 993.261719 689.707031 C 990.785156 690.296875 988.074219 689.828125 985.480469 689.355469 C 982.058594 688.292969 978.402344 688.53125 975.101562 687.46875 C 970.738281 686.644531 965.90625 686.289062 962.011719 684.046875 C 959.417969 682.160156 957.53125 679.566406 955.882812 676.738281 C 954.585938 674.96875 953.640625 672.964844 953.285156 670.839844 C 952.578125 667.65625 953.167969 664.472656 953.167969 661.171875 C 953.523438 655.867188 952.816406 650.441406 951.871094 645.253906 C 951.28125 639.355469 947.746094 634.523438 946.566406 628.863281 C 946.210938 625.089844 947.980469 621.785156 949.515625 618.601562 C 950.691406 615.773438 951.28125 612.589844 952.34375 609.640625 C 953.523438 603.039062 950.929688 596.433594 947.273438 591.011719 C 944.441406 586.058594 939.492188 582.992188 934.773438 580.160156 C 928.996094 576.152344 923.101562 572.261719 918.148438 567.074219 C 916.496094 565.539062 916.730469 562.828125 917.910156 560.941406 C 919.445312 559.527344 921.683594 559.996094 923.570312 560.351562 C 930.882812 562.003906 937.722656 565.304688 945.152344 566.484375 C 950.457031 566.835938 954.703125 565.539062 958.238281 570.609375 C 960.832031 573.203125 963.546875 575.917969 967.082031 577.097656 C 971.445312 578.511719 975.808594 580.042969 980.289062 580.871094 C 989.960938 583.582031 999.746094 586.175781 1009.652344 588.179688 C 1017.433594 590.304688 1025.570312 591.128906 1033.707031 590.890625 C 1037.480469 590.773438 1041.253906 591.011719 1044.792969 589.949219 C 1047.742188 589.714844 1050.6875 588.652344 1052.339844 586.058594 C 1054.460938 583.34375 1054.699219 579.808594 1055.757812 576.742188 C 1057.054688 574.382812 1058.824219 572.378906 1061.183594 570.847656 C 1073.445312 563.535156 1087.714844 564.359375 1101.746094 565.1875 C 1106.9375 565.539062 1112.007812 565.777344 1116.957031 565.777344 C 1124.976562 566.011719 1132.289062 562.710938 1139.597656 559.644531 C 1149.152344 557.992188 1157.996094 553.277344 1164.835938 546.4375 C 1167.664062 543.960938 1171.082031 542.191406 1174.738281 541.367188 C 1181.34375 540.660156 1188.300781 540.304688 1194.3125 537.003906 C 1200.800781 533.820312 1205.398438 528.160156 1209.878906 522.734375 C 1211.765625 521.554688 1214.125 521.4375 1216.011719 520.140625 C 1219.546875 518.019531 1222.734375 515.304688 1224.148438 511.414062 C 1226.742188 505.402344 1229.570312 496.910156 1225.917969 490.898438 C 1223.085938 486.179688 1217.898438 483.585938 1214.597656 479.222656 C 1209.527344 473.796875 1203.867188 469.199219 1198.914062 463.65625 C 1195.375 459.414062 1192.425781 454.8125 1188.417969 451.039062 C 1185.589844 448.328125 1183.464844 444.910156 1180.398438 442.433594 C 1178.394531 440.664062 1176.15625 439.128906 1174.621094 436.890625 C 1173.679688 428.046875 1185.351562 423.449219 1188.890625 416.019531 C 1192.074219 411.890625 1193.132812 406.46875 1191.71875 401.394531 C 1190.777344 398.09375 1188.535156 395.382812 1187.710938 392.082031 C 1186.296875 385.242188 1197.734375 381.820312 1202.804688 380.761719 C 1210.351562 378.757812 1218.605469 377.8125 1225.445312 373.804688 C 1230.75 369.558594 1235.46875 364.488281 1241.363281 361.066406 C 1243.015625 360.125 1244.074219 358.589844 1245.492188 357.292969 C 1246.433594 356.585938 1247.378906 355.761719 1248.085938 354.820312 C 1250.679688 351.871094 1249.5 347.035156 1246.316406 345.03125 C 1242.1875 342.4375 1237.117188 342.199219 1232.753906 340.550781 C 1231.8125 338.898438 1232.636719 336.304688 1231.929688 334.300781 C 1231.578125 332.414062 1230.277344 331 1229.21875 329.582031 C 1226.507812 326.164062 1227.214844 321.917969 1228.511719 318.144531 C 1230.160156 312.839844 1234.640625 309.539062 1238.886719 306.355469 C 1244.664062 302.816406 1251.386719 301.046875 1256.8125 296.800781 C 1261.292969 293.734375 1262.707031 287.957031 1267.1875 284.890625 C 1271.667969 280.882812 1277.210938 278.054688 1281.339844 273.570312 C 1283.226562 271.097656 1284.757812 268.382812 1286.289062 265.789062 C 1287.46875 263.429688 1289.476562 261.308594 1290.0625 258.714844 C 1290.300781 254.234375 1284.167969 248.691406 1280.277344 247.039062 Z M 541.277344 38.558594 C 533.730469 38.675781 527.007812 42.6875 519.933594 44.574219 C 519.460938 40.917969 519.699219 37.144531 519.34375 33.488281 C 518.875 30.070312 519.933594 26.53125 520.761719 23.230469 C 521.703125 19.574219 522.765625 15.449219 525.710938 12.972656 C 530.78125 9.667969 538.683594 6.957031 543.753906 11.320312 C 547.171875 16.507812 548 22.875 550.359375 28.535156 C 551.535156 31.25 552.246094 34.195312 553.660156 36.910156 C 554.957031 40.09375 556.605469 43.160156 557.078125 46.578125 C 556.84375 44.808594 556.019531 43.160156 554.839844 41.980469 C 551.066406 38.796875 545.996094 38.558594 541.277344 38.558594 Z M 1276.386719 270.269531 C 1271.195312 275.105469 1264.710938 278.644531 1259.757812 283.714844 C 1257.871094 285.953125 1256.574219 288.546875 1254.804688 290.90625 C 1249.734375 295.625 1242.425781 297.511719 1236.527344 301.046875 C 1232.875 303.523438 1229.453125 306.355469 1226.503906 309.539062 C 1221.082031 317.554688 1218.839844 327.460938 1225.914062 335.242188 C 1227.09375 338.308594 1225.5625 342.199219 1228.390625 344.675781 C 1231.457031 347.859375 1236.410156 347.390625 1240.300781 349.039062 C 1241.363281 349.628906 1243.484375 349.746094 1243.605469 351.28125 C 1242.304688 352.933594 1240.417969 354.109375 1239.121094 355.761719 C 1236.648438 357.648438 1233.816406 359.0625 1231.457031 361.066406 C 1227.332031 363.78125 1224.5 368.261719 1220.019531 370.265625 C 1213.296875 372.625 1206.222656 374.15625 1199.265625 375.691406 C 1192.542969 377.457031 1184.289062 380.996094 1182.050781 388.191406 C 1180.398438 393.96875 1184.761719 398.800781 1186.296875 404.109375 C 1187.355469 408.824219 1184.289062 412.953125 1181.578125 416.609375 C 1174.976562 422.859375 1162.828125 433.351562 1171.4375 442.667969 C 1172.851562 444.199219 1174.503906 445.5 1176.035156 446.796875 C 1179.808594 450.097656 1182.640625 454.222656 1186.296875 457.527344 C 1190.777344 462.949219 1194.785156 468.726562 1199.972656 473.5625 C 1205.042969 478.042969 1209.523438 483.113281 1214.476562 487.832031 C 1216.953125 490.070312 1219.429688 491.722656 1221.316406 494.789062 C 1221.90625 496.085938 1221.789062 497.738281 1221.789062 499.269531 C 1221.433594 503.160156 1220.019531 507.289062 1218.25 510.707031 C 1217.070312 512.949219 1214.832031 514.363281 1212.828125 515.542969 C 1210.351562 516.722656 1207.402344 516.957031 1205.515625 519.199219 C 1197.734375 529.339844 1190.894531 534.761719 1177.804688 535.351562 C 1170.140625 535.46875 1163.183594 539.597656 1158.113281 545.140625 C 1154.8125 547.851562 1150.917969 550.09375 1146.910156 551.742188 C 1144.316406 553.160156 1141.605469 553.277344 1138.65625 553.984375 C 1134.410156 555.398438 1130.753906 557.402344 1126.390625 558.699219 C 1119.082031 561.058594 1111.296875 559.761719 1103.75 559.527344 C 1094.316406 558.9375 1084.765625 558.582031 1075.332031 559.878906 C 1065.191406 561.648438 1053.164062 565.777344 1049.863281 576.625 C 1048.328125 583.933594 1047.976562 583.933594 1040.664062 584.996094 C 1034.296875 585.351562 1027.8125 585.46875 1021.445312 584.644531 C 1013.191406 583.464844 1005.289062 581.105469 997.152344 579.453125 C 992.4375 578.273438 987.835938 576.742188 983.121094 575.5625 C 977.695312 574.382812 972.035156 573.085938 966.964844 570.492188 C 962.484375 567.664062 959.773438 561.882812 954.113281 561.058594 C 950.8125 560.351562 947.390625 561.058594 944.089844 560.351562 C 939.609375 559.171875 935.128906 557.757812 930.648438 556.460938 C 925.8125 555.164062 920.152344 553.160156 915.554688 556.222656 C 911.070312 559.40625 910.71875 566.953125 914.492188 570.847656 C 919.679688 576.625 926.046875 580.871094 932.296875 585.351562 C 935.835938 587.589844 939.609375 589.714844 941.964844 593.367188 C 944.914062 597.613281 947.039062 602.332031 946.917969 607.519531 C 946.683594 609.171875 945.859375 610.703125 945.503906 612.234375 C 944.914062 615.417969 943.265625 618.132812 941.964844 621.078125 C 940.550781 624.734375 940.316406 629.097656 941.730469 632.871094 C 942.4375 635.820312 944.089844 638.53125 945.152344 641.363281 C 946.449219 645.960938 947.039062 650.796875 947.390625 655.511719 C 947.863281 663.058594 945.503906 671.429688 949.984375 678.152344 C 954.230469 685.582031 959.066406 690.652344 967.910156 691.949219 C 972.273438 692.773438 976.753906 693.953125 981.234375 694.191406 C 984.417969 694.898438 987.71875 695.605469 991.140625 695.605469 C 994.085938 695.839844 996.800781 694.542969 999.277344 693.011719 C 1002.339844 691.714844 1005.996094 692.066406 1008.710938 694.070312 C 1008.945312 694.777344 1008.945312 695.605469 1009.0625 696.429688 C 1003.757812 705.15625 993.496094 708.574219 983.828125 709.992188 C 974.984375 710.460938 971.210938 713.410156 966.140625 720.25 C 963.664062 724.730469 962.367188 729.800781 960.007812 734.398438 C 957.769531 738.761719 955.054688 742.890625 951.753906 746.429688 C 947.273438 750.203125 941.496094 752.089844 936.308594 754.683594 C 930.175781 757.039062 924.75 759.636719 918.617188 762.230469 C 913.785156 765.058594 909.421875 768.597656 904.46875 771.191406 C 899.871094 772.839844 895.390625 774.964844 891.027344 777.324219 C 887.015625 778.738281 884.070312 781.566406 880.53125 783.808594 C 876.402344 786.757812 871.570312 788.878906 868.386719 792.886719 C 865.910156 796.308594 863.785156 800.082031 860.957031 803.148438 C 859.660156 803.972656 858.125 804.207031 856.59375 803.855469 C 856.003906 803.382812 856.003906 802.4375 855.769531 801.730469 C 855.414062 799.136719 855.53125 796.542969 855.53125 794.066406 C 855.53125 793.125 855.296875 792.0625 854.707031 791.355469 C 852.113281 788.40625 848.929688 785.929688 844.917969 785.339844 C 830.652344 781.6875 831.121094 794.539062 820.980469 799.609375 C 816.027344 803.738281 809.660156 801.140625 803.882812 800.90625 C 798.460938 800.316406 793.625 797.488281 788.671875 795.246094 C 784.898438 793.242188 782.65625 789.46875 779.59375 786.757812 C 774.640625 783.574219 769.804688 780.269531 765.441406 776.027344 C 763.554688 774.257812 761.667969 772.132812 760.726562 769.65625 C 759.191406 764.707031 758.601562 759.515625 756.363281 754.917969 C 752.707031 747.371094 748.578125 740.179688 745.394531 732.394531 C 744.6875 729.917969 744.6875 727.441406 743.980469 724.964844 C 742.917969 721.546875 741.859375 718.007812 742.210938 714.355469 C 743.746094 708.574219 743.039062 701.972656 739.265625 697.136719 C 736.199219 693.835938 734.3125 689.589844 730.539062 686.996094 C 728.0625 685.464844 725.820312 683.695312 724.050781 681.453125 C 721.574219 679.332031 718.980469 677.5625 716.742188 675.324219 C 715.5625 674.027344 715.089844 672.140625 714.027344 670.84375 C 711.90625 668.367188 709.3125 666.597656 706.246094 665.417969 C 704.714844 664.59375 702.238281 664.472656 701.648438 662.46875 C 703.769531 659.167969 707.191406 656.691406 709.667969 653.625 C 713.558594 649.96875 715.914062 645.136719 719.21875 641.007812 C 721.695312 638.296875 724.050781 635.585938 726.410156 632.753906 C 729.121094 629.6875 731.835938 626.503906 732.542969 622.378906 C 733.015625 618.605469 731.835938 614.59375 729.476562 611.765625 C 728.535156 610.46875 727.117188 609.640625 726.175781 608.34375 C 725.703125 605.988281 725.9375 603.511719 724.996094 601.269531 C 722.875 596.316406 718.039062 592.78125 713.320312 590.304688 C 709.902344 588.535156 706.363281 586.765625 703.769531 583.816406 C 702.828125 582.167969 702.355469 580.28125 701.53125 578.511719 C 699.523438 574.972656 696.8125 571.671875 695.042969 568.015625 C 694.453125 565.304688 694.574219 562.472656 693.984375 559.644531 C 693.511719 556.222656 692.214844 552.921875 691.269531 549.503906 C 690.089844 545.257812 689.503906 540.777344 689.972656 536.414062 C 691.625 530.046875 694.808594 524.152344 696.8125 517.902344 C 697.636719 515.542969 699.054688 513.183594 699.054688 510.589844 C 698.699219 504.8125 697.050781 499.269531 694.925781 493.964844 C 697.285156 489.835938 701.53125 487.242188 705.066406 484.292969 C 719.335938 470.144531 706.484375 466.84375 718.15625 453.28125 C 723.816406 447.621094 726.648438 441.371094 726.175781 433.234375 C 726.527344 427.691406 722.636719 423.800781 718.15625 420.972656 C 712.851562 418.023438 706.71875 418.023438 700.824219 417.199219 C 695.871094 416.492188 691.035156 414.367188 685.964844 414.957031 C 679.949219 415.664062 674.644531 419.203125 668.984375 421.089844 C 665.683594 422.386719 662.144531 422.738281 658.726562 423.566406 C 654.480469 424.390625 650.351562 425.570312 645.988281 425.804688 C 640.917969 426.277344 635.847656 425.925781 631.015625 424.15625 C 624.527344 421.796875 617.925781 419.675781 611.085938 419.320312 C 601.652344 418.730469 596.464844 418.847656 588.679688 424.980469 C 585.734375 426.632812 583.375 429.816406 580.074219 430.757812 C 576.535156 428.046875 572.644531 425.6875 569.226562 422.621094 C 563.800781 417.078125 557.90625 412.007812 552.597656 406.230469 C 549.058594 402.695312 546.347656 398.449219 543.046875 394.675781 C 538.328125 389.015625 533.378906 383.472656 528.308594 378.046875 C 527.953125 377.695312 527.597656 377.339844 527.246094 376.871094 C 526.539062 375.453125 525.121094 374.394531 523.707031 373.6875 C 519.699219 372.152344 515.335938 373.566406 511.5625 375.21875 C 507.316406 375.925781 502.835938 375.21875 498.710938 374.039062 C 493.757812 372.742188 489.511719 370.265625 484.324219 369.792969 C 478.074219 369.324219 473.59375 370.738281 469.464844 375.453125 C 466.164062 377.8125 462.625 379.699219 458.96875 381.234375 C 456.847656 382.058594 454.960938 382.058594 452.71875 381.585938 C 451.1875 381.351562 449.65625 381.46875 448.238281 380.996094 C 447.179688 380.644531 446.234375 380.054688 445.054688 379.816406 C 441.636719 379.226562 438.453125 379.109375 435.03125 378.757812 C 424.773438 378.875 413.925781 383.355469 404.136719 378.519531 C 401.191406 377.578125 398.242188 378.875 395.53125 379.699219 C 390.929688 380.644531 386.097656 378.285156 382.324219 375.808594 C 376.425781 371.328125 373.714844 364.015625 370.414062 357.648438 C 368.878906 354.347656 369.117188 351.988281 364.753906 351.28125 C 361.453125 350.21875 357.914062 350.457031 354.730469 348.921875 C 351.898438 347.863281 348.832031 345.621094 348.953125 342.320312 C 348.480469 338.191406 349.894531 334.066406 348.953125 329.9375 C 348.125 326.164062 347.535156 321.800781 349.660156 318.382812 C 353.433594 312.839844 356.144531 306 354.492188 299.277344 C 353.195312 291.613281 351.898438 283.714844 348.125 276.875 C 346.121094 272.628906 342.347656 269.5625 338.574219 266.851562 C 332.914062 261.308594 327.960938 254.585938 324.894531 247.277344 C 323.71875 244.917969 322.300781 242.796875 321.59375 240.320312 C 322.183594 235.839844 323.363281 230.296875 319.707031 226.757812 C 315.933594 222.867188 310.746094 226.757812 306.265625 225.933594 C 303.199219 225.34375 301.195312 222.394531 298.011719 222.160156 C 293.882812 221.6875 291.289062 225.34375 287.515625 226.523438 C 294.121094 211.3125 303.199219 197.042969 305.910156 180.417969 C 306.5 176.523438 306.617188 172.515625 305.441406 168.742188 C 304.613281 166.382812 303.671875 164.144531 303.433594 161.667969 C 303.671875 156.125 305.441406 150.582031 308.503906 145.984375 C 310.390625 143.273438 311.808594 140.324219 313.105469 137.257812 C 315.34375 133.601562 317.585938 130.066406 319.824219 126.410156 C 330.203125 111.550781 343.761719 99.289062 359.328125 90.089844 C 367.347656 84.429688 374.070312 77 379.609375 68.863281 C 383.503906 63.324219 386.214844 57.191406 390.929688 52.121094 C 393.054688 50.117188 395.648438 48.820312 398.242188 47.402344 C 400.601562 45.871094 402.957031 44.574219 405.433594 43.160156 C 409.5625 40.328125 413.808594 38.914062 418.640625 38.914062 C 413.335938 42.214844 408.5 46.460938 403.429688 50.234375 C 400.246094 52.710938 397.0625 55.304688 394.585938 58.605469 C 389.75 64.855469 388.21875 74.054688 392.582031 81.011719 C 396.472656 87.261719 404.257812 91.503906 403.785156 99.640625 C 403.785156 107.425781 404.964844 115.207031 404.136719 122.871094 C 402.839844 128.179688 400.953125 133.25 398.714844 138.203125 C 395.882812 144.332031 393.523438 150.820312 388.925781 155.890625 C 386.6875 158.246094 384.328125 160.371094 381.96875 162.492188 C 379.375 164.96875 376.074219 167.328125 375.011719 170.863281 C 373.714844 176.761719 374.304688 183.601562 377.488281 188.789062 C 381.378906 193.035156 386.214844 196.21875 391.402344 198.574219 C 395.410156 200.109375 394.941406 201.640625 395.53125 205.53125 C 396 209.1875 396.238281 212.84375 396.945312 216.5 C 398.476562 221.570312 401.78125 226.523438 406.144531 229.589844 C 409.796875 231.59375 414.042969 231.828125 418.050781 231.945312 C 418.523438 231.945312 419.113281 232.066406 419.585938 232.066406 C 429.726562 232.066406 437.390625 223.8125 443.050781 216.144531 C 446.824219 212.371094 448.003906 207.066406 450.246094 202.347656 C 458.144531 186.195312 462.980469 181.949219 454.136719 164.261719 C 451.777344 156.597656 444.464844 152.585938 440.101562 146.21875 C 434.796875 137.964844 429.960938 129.238281 427.605469 119.570312 C 427.132812 116.859375 429.609375 114.5 430.199219 111.90625 C 432.203125 103.296875 432.910156 99.171875 440.8125 93.863281 C 445.644531 90.5625 451.542969 89.617188 457.082031 87.96875 C 461.09375 87.140625 464.511719 85.609375 468.523438 84.785156 C 476.070312 84.667969 483.734375 84.667969 491.042969 82.542969 C 494.109375 82.070312 498 81.480469 501.066406 80.421875 C 503.898438 79.359375 506.257812 77.355469 508.730469 75.585938 C 511.679688 73.933594 514.390625 71.929688 517.457031 70.632812 C 525.832031 68.15625 535.144531 66.859375 541.75 60.609375 C 544.34375 59.078125 546.585938 57.308594 549.058594 55.777344 C 552.953125 54.007812 557.667969 50.824219 558.023438 46.222656 C 557.433594 55.65625 564.863281 56.835938 572.171875 57.542969 C 576.417969 57.898438 580.664062 57.664062 585.027344 57.542969 C 588.800781 57.425781 592.574219 57.191406 596.347656 57.425781 C 599.410156 57.542969 602.125 58.605469 604.71875 60.140625 C 608.726562 61.4375 612.382812 63.914062 616.746094 64.265625 C 618.75 64.621094 620.753906 64.503906 622.761719 64.503906 C 625.117188 64.503906 627.476562 64.503906 629.71875 64.972656 C 636.085938 67.804688 641.15625 73.226562 644.101562 79.59375 C 645.636719 82.191406 647.050781 84.902344 647.523438 87.96875 C 647.996094 92.332031 645.988281 96.339844 645.871094 100.703125 C 645.519531 107.894531 649.644531 114.5 655.1875 118.746094 C 670.164062 128.414062 683.960938 128.648438 700.824219 124.285156 C 704.242188 123.34375 707.308594 121.8125 710.609375 120.511719 C 714.972656 119.335938 719.21875 117.917969 723.460938 116.152344 C 728.0625 114.617188 732.894531 114.972656 737.730469 115.441406 C 740.207031 115.679688 742.566406 115.796875 744.925781 115.796875 C 753.179688 116.152344 760.726562 111.667969 768.863281 110.960938 C 772.753906 110.84375 777.234375 110.253906 781.242188 111.078125 C 785.371094 112.496094 789.734375 112.496094 793.976562 111.433594 C 799.167969 110.609375 804.472656 111.316406 809.660156 110.371094 C 813.082031 109.78125 816.03125 111.316406 818.035156 113.910156 C 820.746094 116.269531 822.988281 118.980469 824.992188 121.929688 C 830.414062 130.300781 837.253906 138.910156 847.632812 140.914062 C 852.585938 141.621094 857.65625 141.386719 862.488281 143.035156 C 868.738281 144.6875 874.515625 147.515625 880.886719 148.695312 C 885.011719 149.285156 889.140625 149.285156 893.265625 149.285156 C 893.972656 149.285156 894.800781 149.285156 895.507812 149.285156 C 900.339844 149.167969 905.410156 148.695312 910.011719 147.28125 C 913.078125 145.867188 916.261719 144.804688 919.207031 143.152344 C 927.109375 138.082031 935.363281 132.542969 944.207031 129.359375 C 947.863281 127.824219 951.519531 126.171875 955.292969 124.996094 C 960.714844 124.40625 966.140625 123.933594 971.683594 123.816406 C 972.980469 123.699219 974.277344 123.816406 975.574219 123.816406 C 978.523438 123.933594 981.46875 124.050781 984.183594 122.871094 C 989.371094 120.394531 994.792969 118.625 999.863281 115.914062 C 1001.75 114.851562 1001.988281 112.257812 1001.042969 110.492188 C 997.507812 102.234375 983.710938 107.1875 976.515625 107.425781 C 979.347656 106.71875 981.585938 106.597656 984.300781 106.007812 C 989.015625 104.476562 993.496094 102.589844 998.566406 102.589844 C 1004.464844 102.117188 1010.359375 103.769531 1016.257812 104.121094 C 1024.273438 104.359375 1032.410156 104.710938 1040.3125 104.121094 C 1045.027344 103.296875 1049.628906 102.117188 1054.226562 100.703125 C 1058.117188 100.230469 1061.890625 99.171875 1065.664062 98.34375 C 1071.679688 97.402344 1077.808594 97.285156 1083.941406 97.164062 C 1087.714844 97.046875 1091.371094 97.519531 1095.144531 97.992188 C 1099.507812 98.460938 1103.75 98.933594 1108.113281 98.699219 C 1115.425781 98.109375 1122.382812 95.160156 1129.8125 95.398438 C 1126.628906 100.703125 1120.613281 102.824219 1116.015625 106.480469 C 1112.832031 109.074219 1108.585938 109.074219 1104.695312 109.429688 C 1101.039062 109.664062 1097.265625 109.664062 1093.609375 109.3125 C 1086.183594 108.722656 1077.925781 108.605469 1070.378906 110.019531 C 1063.542969 111.078125 1055.996094 116.621094 1059.53125 124.285156 C 1060.710938 126.527344 1062.714844 128.058594 1064.71875 129.359375 C 1069.320312 132.304688 1073.917969 135.253906 1078.988281 137.613281 C 1087.480469 141.503906 1086.890625 152.707031 1097.972656 153.058594 C 1100.214844 153.175781 1102.335938 152.824219 1104.460938 152.351562 C 1106.699219 151.996094 1108.824219 151.527344 1111.0625 151.761719 C 1121.675781 153.414062 1130.875 159.898438 1140.660156 164.027344 C 1145.730469 166.503906 1151.507812 167.210938 1157.050781 166.03125 C 1161.058594 164.496094 1165.1875 165.324219 1169.078125 166.738281 C 1175.566406 168.976562 1179.808594 174.757812 1185.941406 177.703125 C 1190.65625 180.296875 1196.4375 179.707031 1201.152344 182.066406 C 1206.222656 184.78125 1210.46875 186.785156 1208.9375 193.386719 C 1204.691406 194.683594 1201.390625 197.988281 1198.675781 201.40625 C 1196.4375 204.234375 1195.730469 208.246094 1196.671875 211.78125 C 1196.671875 211.902344 1196.671875 211.902344 1196.554688 212.019531 C 1194.550781 213.90625 1192.074219 215.554688 1190.304688 217.796875 C 1188.652344 220.039062 1188.417969 222.867188 1187.945312 225.460938 C 1187.355469 227.230469 1186.648438 228.882812 1185.707031 230.53125 C 1184.644531 232.773438 1183.230469 234.894531 1181.8125 237.019531 C 1180.515625 238.550781 1179.21875 240.082031 1176.980469 240.082031 C 1175.445312 240.671875 1173.796875 240.554688 1172.261719 240.4375 C 1171.203125 240.4375 1170.140625 240.320312 1169.078125 240.4375 C 1167.78125 240.4375 1166.484375 240.792969 1165.1875 241.261719 C 1163.890625 241.734375 1162.710938 242.089844 1161.296875 242.089844 C 1158.820312 242.089844 1156.226562 241.96875 1153.75 241.5 C 1151.15625 241.144531 1147.734375 240.671875 1145.257812 242.324219 C 1142.664062 243.855469 1142.664062 247.277344 1143.960938 249.753906 C 1144.667969 251.285156 1146.320312 252.230469 1147.855469 252.9375 C 1151.863281 255.882812 1156.816406 257.652344 1161.769531 257.417969 C 1164.007812 257.652344 1166.367188 257.652344 1168.488281 258.359375 C 1171.554688 260.011719 1174.855469 260.71875 1178.394531 260.835938 C 1183.464844 260.484375 1187.828125 257.535156 1192.78125 256.472656 C 1194.078125 256.003906 1195.375 256.003906 1196.671875 256.003906 C 1197.496094 256.003906 1198.203125 256.003906 1199.03125 255.882812 C 1201.742188 254.941406 1203.984375 252.109375 1206.695312 250.695312 C 1208.109375 250.34375 1209.644531 250.222656 1211.175781 250.105469 C 1213.0625 250.933594 1215.183594 251.523438 1217.308594 251.640625 C 1224.148438 252.464844 1231.105469 251.757812 1237.824219 250.695312 C 1240.773438 250.105469 1242.660156 247.984375 1244.78125 246.097656 C 1247.96875 244.328125 1251.859375 243.386719 1255.515625 244.09375 C 1257.988281 244.445312 1260.230469 245.742188 1262.589844 246.570312 C 1264.59375 247.984375 1266.832031 249.046875 1269.429688 249.28125 C 1272.257812 249.988281 1275.207031 250.578125 1278.035156 251.285156 C 1280.75 252.347656 1282.753906 254.707031 1284.402344 256.945312 C 1281.457031 262.132812 1279.332031 266.378906 1276.386719 270.269531 Z M 1276.386719 270.269531 " fill-opacity="1" fill-rule="nonzero"/></g><path fill="#7687ff" d="M 953.167969 87.730469 C 957.296875 89.148438 961.894531 87.96875 966.257812 88.320312 C 968.144531 89.382812 969.914062 90.445312 972.035156 91.035156 C 975.335938 91.859375 979.582031 90.5625 981.234375 87.496094 C 981.941406 86.550781 981.824219 84.785156 983.003906 84.3125 C 985.832031 83.605469 989.015625 83.367188 991.375 81.601562 C 992.671875 80.304688 994.324219 79.003906 994.914062 77.117188 C 995.503906 74.054688 995.503906 70.398438 993.617188 67.6875 C 990.3125 62.613281 983.238281 64.265625 979.464844 67.804688 C 977.578125 69.453125 976.515625 71.8125 975.335938 73.933594 C 974.628906 73.464844 973.6875 73.699219 972.863281 74.054688 C 971.210938 74.878906 968.96875 75.820312 967.082031 75.703125 C 965.785156 75.351562 964.960938 74.171875 963.898438 73.464844 C 962.011719 72.167969 959.65625 71.578125 957.414062 71.929688 C 952.933594 72.992188 941.730469 78.0625 946.328125 83.957031 C 948.453125 85.492188 950.8125 86.671875 953.167969 87.730469 Z M 957.058594 76.648438 C 958.238281 76.058594 960.125 76.058594 961.304688 77.117188 C 962.71875 78.652344 964.371094 80.304688 966.613281 80.65625 C 970.148438 81.128906 973.097656 78.652344 976.28125 77.589844 C 979.699219 75.941406 981.117188 71.457031 985.007812 70.632812 C 987.246094 69.691406 989.605469 70.042969 989.605469 72.992188 C 989.960938 74.996094 989.253906 76.175781 987.835938 77.472656 C 985.714844 78.769531 983.003906 78.769531 980.878906 80.183594 C 979.109375 81.128906 978.285156 83.015625 977.578125 84.785156 C 977.222656 85.84375 975.808594 85.84375 974.867188 86.082031 C 972.507812 85.84375 970.738281 84.078125 968.617188 83.25 C 964.605469 82.070312 960.832031 83.367188 956.589844 83.015625 C 954.464844 82.898438 952.699219 81.363281 950.691406 80.773438 C 952.34375 78.652344 954.585938 77.472656 957.058594 76.648438 Z M 957.058594 76.648438 " fill-opacity="1" fill-rule="nonzero"/><path fill="#7687ff" d="M 877.9375 91.742188 C 880.53125 91.742188 888.429688 90.796875 888.429688 87.496094 C 890.199219 84.3125 885.128906 81.71875 882.535156 81.480469 C 880.296875 81.011719 878.171875 79.59375 875.8125 79.59375 C 872.039062 80.066406 866.734375 83.605469 867.914062 87.96875 C 869.445312 91.625 874.515625 91.386719 877.9375 91.742188 Z M 872.039062 85.84375 C 873.21875 85.019531 874.636719 84.078125 876.050781 83.957031 C 878.878906 84.902344 881.003906 86.316406 884.070312 87.140625 C 882.183594 87.613281 880.175781 87.613281 878.171875 87.851562 C 877.109375 87.730469 869.566406 88.085938 872.039062 85.84375 Z M 872.039062 85.84375 " fill-opacity="1" fill-rule="nonzero"/><path fill="#7687ff" d="M 963.308594 92.921875 C 962.601562 92.683594 961.894531 92.449219 961.1875 92.332031 C 954.347656 90.207031 944.324219 96.574219 955.054688 100.46875 C 958.003906 100.9375 963.308594 100.230469 965.195312 97.636719 C 966.140625 96.105469 965.078125 94.335938 963.664062 93.628906 C 963.78125 93.273438 963.664062 93.039062 963.308594 92.921875 Z M 957.296875 97.402344 C 955.882812 97.519531 954.347656 97.285156 953.40625 96.222656 C 954.113281 95.398438 955.054688 94.925781 956.117188 94.453125 C 956.234375 95.277344 957.058594 95.867188 957.886719 95.867188 C 959.417969 95.867188 961.070312 95.75 962.601562 96.457031 C 960.832031 96.929688 959.066406 97.164062 957.296875 97.402344 Z M 957.296875 97.402344 " fill-opacity="1" fill-rule="nonzero"/><path fill="#7687ff" d="M 920.386719 22.523438 C 922.039062 23.464844 924.042969 23.113281 925.929688 22.996094 C 927.582031 22.875 929.703125 23.113281 931.234375 21.933594 C 932.535156 20.871094 932.652344 18.632812 931.589844 17.453125 C 933.476562 16.390625 932.0625 14.859375 930.648438 14.269531 C 928.996094 13.5625 927.109375 13.207031 925.339844 13.679688 C 921.800781 14.621094 915.316406 19.101562 920.386719 22.523438 Z M 927.933594 17.335938 C 928.050781 17.570312 928.289062 17.804688 928.523438 17.921875 C 928.878906 18.632812 929.585938 19.222656 929.703125 19.929688 C 929.46875 20.046875 929.230469 20.046875 928.996094 20.046875 C 926.992188 20.046875 924.988281 19.808594 922.980469 19.457031 C 924.398438 18.511719 926.046875 17.214844 927.933594 17.335938 Z M 927.933594 17.335938 " fill-opacity="1" fill-rule="nonzero"/><path fill="#7687ff" d="M 814.613281 31.128906 C 816.5 31.367188 818.742188 31.25 819.800781 29.480469 C 820.511719 28.417969 820.980469 26.769531 819.800781 25.824219 C 820.628906 25.351562 820.273438 24.410156 819.449219 24.292969 C 818.503906 23.9375 817.328125 23.464844 816.265625 23.113281 C 807.773438 20.28125 805.296875 30.1875 814.613281 31.128906 Z M 816.148438 26.058594 C 816.382812 27.121094 817.679688 27.238281 818.386719 27.828125 C 818.152344 28.183594 817.796875 28.535156 817.445312 28.65625 C 816.265625 28.535156 815.320312 28.300781 814.140625 27.945312 C 813.554688 27.710938 812.492188 27.476562 812.019531 26.769531 C 812.964844 25.46875 814.851562 25.941406 816.148438 26.058594 Z M 816.148438 26.058594 " fill-opacity="1" fill-rule="nonzero"/><path fill="#7687ff" d="M 1209.644531 204 C 1207.402344 204 1204.453125 207.890625 1205.988281 210.015625 C 1207.992188 212.488281 1212.707031 209.777344 1213.535156 207.300781 C 1214.007812 205.179688 1211.648438 203.175781 1209.644531 204 Z M 1208.226562 207.890625 C 1208.226562 207.417969 1208.464844 206.949219 1208.582031 206.476562 C 1209.054688 206.710938 1209.523438 206.359375 1209.996094 206.476562 C 1209.996094 206.476562 1210.113281 206.59375 1210.113281 206.59375 C 1209.644531 207.300781 1209.054688 207.65625 1208.226562 207.890625 Z M 1208.226562 207.890625 " fill-opacity="1" fill-rule="nonzero"/><path fill="#7687ff" d="M 1217.78125 212.84375 C 1217.308594 212.488281 1217.070312 212.019531 1216.601562 211.664062 C 1216.011719 209.777344 1211.53125 210.957031 1210.234375 211.546875 C 1209.171875 211.78125 1208.464844 212.960938 1209.171875 213.90625 C 1210.234375 215.085938 1211.882812 215.554688 1213.179688 216.382812 C 1215.066406 217.679688 1218.957031 215.320312 1217.78125 212.84375 Z M 1214.359375 214.496094 C 1214.125 214.375 1213.886719 214.257812 1213.769531 214.140625 C 1213.417969 213.90625 1213.179688 213.789062 1212.828125 213.550781 C 1212.589844 213.433594 1212.355469 213.316406 1212.121094 213.199219 C 1213.0625 212.84375 1214.242188 212.726562 1215.304688 212.609375 C 1215.773438 212.84375 1216.011719 213.199219 1216.246094 213.550781 C 1215.773438 214.140625 1214.949219 214.375 1214.359375 214.496094 Z M 1214.359375 214.496094 " fill-opacity="1" fill-rule="nonzero"/><path fill="#7687ff" d="M 1221.433594 211.78125 C 1222.96875 212.488281 1224.265625 211.074219 1224.972656 209.777344 C 1225.5625 208.714844 1226.625 207.066406 1225.089844 206.242188 C 1223.558594 204.941406 1221.554688 206.828125 1220.492188 208.007812 C 1219.195312 209.304688 1219.902344 211.191406 1221.433594 211.78125 Z M 1224.738281 207.539062 C 1224.265625 208.480469 1223.441406 209.425781 1222.496094 210.015625 C 1222.261719 210.015625 1222.023438 209.777344 1221.90625 209.542969 C 1222.378906 208.480469 1223.441406 207.066406 1224.738281 207.539062 Z M 1224.738281 207.539062 " fill-opacity="1" fill-rule="nonzero"/><path fill="#7687ff" d="M 1216.363281 221.921875 C 1216.835938 220.746094 1216.246094 219.328125 1215.304688 218.621094 C 1214.007812 217.914062 1212.589844 218.859375 1211.765625 219.800781 C 1210.351562 221.097656 1209.40625 223.339844 1211.175781 224.753906 C 1213.296875 225.933594 1215.539062 223.929688 1216.363281 221.921875 Z M 1213.296875 220.625 C 1213.886719 220.980469 1214.359375 220.390625 1214.949219 220.863281 C 1214.476562 221.921875 1213.652344 223.339844 1212.355469 223.222656 C 1212.355469 223.222656 1212.238281 223.222656 1212.238281 223.222656 C 1211.765625 222.277344 1212.707031 221.335938 1213.296875 220.625 Z M 1213.296875 220.625 " fill-opacity="1" fill-rule="nonzero"/><path fill="#7687ff" d="M 1214.949219 229.117188 C 1214.714844 230.769531 1216.246094 232.773438 1217.78125 233.125 C 1222.261719 233.363281 1221.199219 227.113281 1217.542969 226.640625 C 1216.011719 226.285156 1215.066406 227.703125 1214.949219 229.117188 Z M 1219.429688 230.058594 C 1219.3125 230.53125 1219.195312 231.238281 1218.605469 231.238281 L 1218.722656 231.238281 C 1218.25 231.355469 1217.898438 231.121094 1217.542969 230.769531 C 1216.71875 230.058594 1216.128906 229 1216.835938 227.9375 C 1217.308594 228.292969 1218.015625 227.9375 1218.605469 228.410156 C 1218.957031 228.882812 1219.429688 229.46875 1219.429688 230.058594 Z M 1219.429688 230.058594 " fill-opacity="1" fill-rule="nonzero"/><path fill="#7687ff" d="M 1224.855469 240.320312 C 1224.5 242.085938 1226.386719 243.148438 1227.921875 243.265625 C 1230.277344 243.738281 1233.109375 240.554688 1230.632812 238.902344 C 1229.925781 238.3125 1228.863281 237.605469 1227.921875 238.3125 C 1226.625 238.078125 1225.207031 239.023438 1224.855469 240.320312 Z M 1229.808594 240.4375 C 1229.6875 241.027344 1228.980469 241.261719 1228.390625 241.378906 C 1224.5 241.144531 1228.15625 238.550781 1229.808594 240.4375 Z M 1229.808594 240.4375 " fill-opacity="1" fill-rule="nonzero"/><path fill="#7687ff" d="M 1215.183594 240.671875 C 1217.542969 241.617188 1221.789062 239.023438 1221.199219 236.308594 C 1221.316406 236.074219 1221.199219 235.839844 1220.84375 235.839844 C 1220.726562 235.71875 1220.492188 235.601562 1220.253906 235.601562 C 1220.136719 235.601562 1220.019531 235.601562 1220.019531 235.601562 C 1217.78125 234.542969 1211.648438 238.902344 1215.183594 240.671875 Z M 1219.546875 236.664062 C 1219.546875 236.78125 1219.546875 236.78125 1219.546875 236.664062 C 1218.605469 237.605469 1217.78125 238.550781 1216.480469 238.785156 C 1217.191406 237.84375 1218.25 236.898438 1219.546875 236.664062 Z M 1219.546875 236.664062 " fill-opacity="1" fill-rule="nonzero"/><path fill="#7687ff" d="M 1220.492188 244.328125 C 1221.90625 244.328125 1223.792969 244.328125 1224.382812 242.796875 C 1224.617188 241.96875 1224.5 240.910156 1223.675781 240.4375 C 1223.085938 239.847656 1221.789062 239.613281 1221.082031 240.199219 C 1219.429688 240.320312 1216.71875 241.617188 1218.015625 243.738281 C 1218.722656 244.445312 1219.667969 244.445312 1220.492188 244.328125 Z M 1221.554688 241.144531 C 1222.023438 241.261719 1222.613281 241.261719 1222.851562 241.734375 C 1222.851562 241.851562 1222.851562 241.851562 1222.730469 242.085938 C 1221.671875 242.441406 1220.609375 242.324219 1219.546875 242.441406 C 1219.546875 242.441406 1219.429688 242.441406 1219.429688 242.441406 C 1219.902344 241.734375 1220.964844 241.617188 1221.554688 241.144531 Z M 1221.554688 241.144531 " fill-opacity="1" fill-rule="nonzero"/><path fill="#7687ff" d="M 1212.238281 236.898438 C 1213.417969 237.726562 1215.066406 236.78125 1215.65625 235.601562 C 1216.246094 233.953125 1215.421875 230.648438 1213.0625 231.355469 C 1212.945312 231.355469 1212.828125 231.238281 1212.707031 231.238281 C 1212.238281 230.886719 1211.53125 231.355469 1211.175781 231.710938 C 1209.40625 233.007812 1210.351562 236.074219 1212.238281 236.898438 Z M 1212.121094 232.066406 C 1212.238281 232.773438 1213.179688 232.300781 1213.652344 232.535156 C 1214.476562 233.007812 1214.242188 234.070312 1214.125 234.894531 C 1213.769531 235.128906 1213.535156 235.25 1213.179688 235.367188 C 1211.765625 235.128906 1211.058594 233.007812 1212.121094 232.066406 Z M 1212.121094 232.066406 " fill-opacity="1" fill-rule="nonzero"/><path fill="#7687ff" d="M 1214.949219 204.117188 C 1215.421875 204.234375 1215.894531 204.234375 1216.246094 204 C 1216.601562 203.882812 1217.191406 203.765625 1217.191406 203.292969 C 1218.367188 202.9375 1218.839844 201.523438 1218.132812 200.460938 C 1217.425781 199.285156 1215.65625 199.046875 1214.476562 199.636719 C 1212.828125 200.582031 1212.945312 203.527344 1214.949219 204.117188 Z M 1215.304688 201.167969 C 1216.128906 200.699219 1217.070312 201.640625 1216.363281 202.46875 C 1216.246094 202.46875 1216.128906 202.46875 1216.011719 202.46875 C 1215.894531 202.46875 1215.65625 202.585938 1215.539062 202.585938 C 1215.421875 202.46875 1215.183594 202.347656 1215.066406 202.113281 C 1214.949219 201.878906 1215.183594 201.523438 1215.304688 201.167969 Z M 1215.304688 201.167969 " fill-opacity="1" fill-rule="nonzero"/><path fill="#7687ff" d="M 1202.097656 218.386719 C 1199.855469 220.15625 1197.96875 222.75 1197.617188 225.695312 C 1197.261719 226.40625 1197.261719 227.230469 1197.027344 227.9375 C 1196.671875 228.644531 1197.144531 229.351562 1197.851562 229.46875 C 1198.675781 229.707031 1199.503906 229.234375 1200.089844 228.644531 C 1201.035156 228.054688 1201.976562 227.230469 1202.6875 226.40625 C 1205.164062 224.164062 1207.636719 221.453125 1209.40625 218.621094 C 1210.824219 216.027344 1207.167969 214.375 1205.28125 215.792969 C 1203.984375 216.382812 1203.277344 217.5625 1202.097656 218.386719 Z M 1207.285156 217.5625 C 1207.046875 219.683594 1205.28125 221.453125 1203.984375 223.101562 C 1202.214844 224.871094 1200.5625 226.875 1198.324219 228.171875 C 1198.324219 228.171875 1198.203125 228.171875 1198.203125 228.171875 C 1199.265625 224.988281 1200.917969 221.921875 1203.277344 219.566406 C 1204.101562 218.621094 1205.871094 216.261719 1207.285156 217.5625 Z M 1207.285156 217.5625 " fill-opacity="1" fill-rule="nonzero"/><path fill="#7687ff" d="M 1203.863281 233.363281 C 1204.574219 231.238281 1201.625 231.355469 1200.210938 231.710938 C 1198.324219 231.828125 1196.554688 233.007812 1194.902344 233.832031 C 1192.542969 235.484375 1190.65625 237.726562 1188.535156 239.492188 C 1187.355469 240.910156 1187.238281 243.265625 1189.597656 243.386719 C 1191.71875 243.503906 1193.722656 242.441406 1195.609375 241.734375 C 1199.382812 240.199219 1202.214844 237.015625 1203.863281 233.363281 Z M 1197.851562 239.023438 C 1195.609375 240.4375 1193.015625 241.617188 1190.421875 242.207031 C 1189.949219 242.085938 1188.769531 242.207031 1189.359375 241.5 C 1189.949219 240.4375 1191.367188 239.964844 1192.191406 239.140625 C 1194.550781 236.78125 1196.789062 234.304688 1200.089844 233.242188 C 1200.679688 233.714844 1201.269531 233.125 1201.976562 233.242188 C 1201.152344 235.367188 1199.855469 237.488281 1197.851562 239.023438 Z M 1197.851562 239.023438 " fill-opacity="1" fill-rule="nonzero"/><path fill="#7687ff" d="M 1201.507812 243.503906 C 1202.332031 243.855469 1203.277344 243.503906 1204.21875 243.503906 C 1206.578125 243.621094 1209.171875 242.207031 1210.703125 240.4375 C 1211.058594 239.847656 1211.53125 239.257812 1211.410156 238.433594 C 1211.175781 237.488281 1210.234375 236.308594 1209.171875 236.78125 C 1206.339844 235.367188 1202.804688 237.605469 1201.390625 240.199219 C 1200.800781 241.144531 1200.089844 242.914062 1201.507812 243.503906 Z M 1208.816406 237.84375 C 1208.933594 238.078125 1209.171875 238.078125 1209.289062 238.195312 C 1209.523438 238.433594 1209.644531 238.902344 1209.878906 239.257812 C 1209.523438 240.082031 1208.699219 240.554688 1207.875 240.910156 C 1206.105469 241.851562 1204.574219 241.734375 1202.566406 241.96875 C 1203.277344 239.375 1206.222656 237.253906 1208.816406 237.84375 Z M 1208.816406 237.84375 " fill-opacity="1" fill-rule="nonzero"/><path fill="#7687ff" d="M 1194.195312 244.445312 C 1192.425781 244.5625 1190.777344 245.273438 1189.007812 245.507812 C 1186.414062 246.097656 1183.699219 246.097656 1181.460938 247.746094 C 1178.394531 249.398438 1177.570312 252.820312 1181.695312 253.644531 C 1183.820312 253.878906 1185.824219 253.054688 1187.945312 252.582031 C 1191.246094 251.640625 1195.492188 251.640625 1197.734375 248.574219 C 1198.558594 247.277344 1198.203125 245.507812 1196.789062 244.683594 C 1196.082031 243.972656 1194.785156 243.621094 1194.195312 244.445312 Z M 1193.488281 249.632812 C 1191.484375 250.460938 1189.242188 250.578125 1187.238281 251.285156 C 1185.707031 251.757812 1184.171875 252.464844 1182.523438 252.464844 C 1178.160156 251.757812 1181.8125 249.164062 1183.820312 248.335938 C 1186.882812 247.394531 1190.421875 247.277344 1193.488281 246.214844 C 1194.429688 245.859375 1195.375 245.859375 1196.082031 246.6875 C 1196.789062 248.21875 1194.550781 249.046875 1193.488281 249.632812 Z M 1193.488281 249.632812 " fill-opacity="1" fill-rule="nonzero"/><path fill="#7687ff" d="M 1174.855469 247.628906 C 1172.96875 247.039062 1170.964844 247.746094 1168.960938 247.511719 C 1166.25 247.628906 1163.535156 248.101562 1160.707031 248.21875 C 1159.527344 248.101562 1158.347656 248.21875 1157.40625 248.925781 C 1156.699219 249.398438 1156.699219 250.222656 1156.933594 250.933594 C 1157.640625 252.464844 1159.761719 252.820312 1161.296875 253.054688 C 1163.773438 253.761719 1166.25 254.941406 1168.960938 255.058594 C 1171.4375 255.53125 1173.675781 254.585938 1175.683594 253.289062 C 1177.214844 252.464844 1178.75 250.105469 1177.449219 248.457031 C 1176.863281 247.628906 1175.800781 247.511719 1174.855469 247.628906 Z M 1174.03125 251.519531 C 1172.734375 252.230469 1171.554688 253.289062 1169.90625 252.820312 C 1167.429688 252.699219 1165.1875 251.992188 1162.828125 251.285156 C 1161.53125 251.050781 1160.234375 251.050781 1159.054688 250.460938 C 1164.125 250.8125 1169.195312 249.753906 1174.265625 249.164062 C 1174.503906 249.515625 1174.976562 249.632812 1175.328125 249.753906 C 1175.09375 250.578125 1174.738281 251.050781 1174.03125 251.519531 Z M 1174.03125 251.519531 " fill-opacity="1" fill-rule="nonzero"/><path fill="#7687ff" d="M 1209.289062 225.816406 C 1209.289062 225.578125 1209.171875 225.34375 1208.933594 225.226562 C 1207.402344 224.636719 1205.988281 226.285156 1205.515625 227.464844 C 1204.925781 229 1205.398438 230.886719 1206.339844 232.066406 C 1206.460938 232.417969 1206.578125 232.890625 1206.929688 233.125 C 1208.464844 233.832031 1209.40625 231.828125 1210.351562 231.003906 C 1211.410156 229.589844 1211.410156 227.820312 1209.996094 226.640625 C 1209.644531 226.285156 1209.523438 226.050781 1209.289062 225.816406 Z M 1207.757812 231.828125 C 1207.757812 231.59375 1207.757812 231.476562 1207.636719 231.355469 C 1206.929688 229.824219 1206.460938 227.820312 1208.109375 226.640625 C 1208.109375 226.640625 1208.226562 226.757812 1208.226562 226.757812 C 1208.582031 227.464844 1209.054688 228.054688 1209.523438 228.761719 C 1209.761719 229.941406 1208.582031 231.003906 1207.757812 231.828125 Z M 1207.757812 231.828125 " fill-opacity="1" fill-rule="nonzero"/><g fill="#7687ff" fill-opacity="1"><g transform="translate(287.638761, 552.286744)"><g><path d="M 46 -5.4375 L 16.203125 -66.453125 L 16.203125 0 L 8.375 0 L 8.375 -76.125 L 20.125 -76.125 L 46.109375 -22.078125 L 72 -76.125 L 83.734375 -76.125 L 83.734375 0 L 75.796875 0 L 75.796875 -66.5625 Z M 46 -5.4375 "/></g></g></g><g fill="#7687ff" fill-opacity="1"><g transform="translate(379.740155, 552.286744)"><g><path d="M 24.03125 0.984375 C 18.082031 0.984375 13.242188 -0.535156 9.515625 -3.578125 C 5.785156 -6.628906 3.921875 -10.582031 3.921875 -15.4375 C 3.921875 -20.519531 5.875 -24.5625 9.78125 -27.5625 C 13.695312 -30.570312 18.992188 -32.078125 25.671875 -32.078125 C 28.566406 -32.078125 31.375 -31.75 34.09375 -31.09375 C 36.8125 -30.445312 39.332031 -29.546875 41.65625 -28.390625 L 41.65625 -35.5625 C 41.65625 -39.914062 40.421875 -43.195312 37.953125 -45.40625 C 35.484375 -47.613281 31.894531 -48.71875 27.1875 -48.71875 C 24.5 -48.71875 21.796875 -48.335938 19.078125 -47.578125 C 16.359375 -46.816406 13.367188 -45.601562 10.109375 -43.9375 L 7.0625 -50.140625 C 10.976562 -52.023438 14.601562 -53.398438 17.9375 -54.265625 C 21.28125 -55.140625 24.617188 -55.578125 27.953125 -55.578125 C 34.835938 -55.578125 40.144531 -53.941406 43.875 -50.671875 C 47.613281 -47.410156 49.484375 -42.738281 49.484375 -36.65625 L 49.484375 0 L 41.65625 0 L 41.65625 -5.328125 C 39.1875 -3.222656 36.484375 -1.644531 33.546875 -0.59375 C 30.609375 0.457031 27.4375 0.984375 24.03125 0.984375 Z M 11.640625 -15.65625 C 11.640625 -12.613281 12.925781 -10.128906 15.5 -8.203125 C 18.070312 -6.285156 21.390625 -5.328125 25.453125 -5.328125 C 28.710938 -5.328125 31.679688 -5.832031 34.359375 -6.84375 C 37.046875 -7.863281 39.476562 -9.460938 41.65625 -11.640625 L 41.65625 -21.859375 C 39.40625 -23.378906 36.992188 -24.484375 34.421875 -25.171875 C 31.847656 -25.859375 29 -26.203125 25.875 -26.203125 C 21.53125 -26.203125 18.070312 -25.238281 15.5 -23.3125 C 12.925781 -21.394531 11.640625 -18.84375 11.640625 -15.65625 Z M 11.640625 -15.65625 "/></g></g></g><g fill="#7687ff" fill-opacity="1"><g transform="translate(435.849149, 552.286744)"><g><path d="M 6.84375 0 L 6.84375 -54.484375 L 14.90625 -54.484375 L 14.90625 -46.765625 C 16.5 -49.585938 18.597656 -51.78125 21.203125 -53.34375 C 23.816406 -54.90625 26.789062 -55.6875 30.125 -55.6875 C 31.132812 -55.6875 32.035156 -55.628906 32.828125 -55.515625 C 33.628906 -55.410156 34.429688 -55.210938 35.234375 -54.921875 L 35.234375 -47.53125 C 34.296875 -47.8125 33.351562 -48.039062 32.40625 -48.21875 C 31.46875 -48.40625 30.523438 -48.5 29.578125 -48.5 C 26.242188 -48.5 23.304688 -47.535156 20.765625 -45.609375 C 18.234375 -43.691406 16.28125 -40.921875 14.90625 -37.296875 L 14.90625 0 Z M 6.84375 0 "/></g></g></g><g fill="#7687ff" fill-opacity="1"><g transform="translate(473.472618, 552.286744)"><g><path d="M 32.296875 -6.3125 C 35.203125 -6.3125 37.992188 -6.890625 40.671875 -8.046875 C 43.359375 -9.203125 45.859375 -10.90625 48.171875 -13.15625 L 53.171875 -7.71875 C 50.273438 -4.96875 47.015625 -2.828125 43.390625 -1.296875 C 39.765625 0.222656 35.992188 0.984375 32.078125 0.984375 C 28.234375 0.984375 24.609375 0.257812 21.203125 -1.1875 C 17.796875 -2.644531 14.859375 -4.640625 12.390625 -7.171875 C 9.929688 -9.710938 7.972656 -12.722656 6.515625 -16.203125 C 5.066406 -19.679688 4.34375 -23.378906 4.34375 -27.296875 C 4.34375 -31.210938 5.066406 -34.890625 6.515625 -38.328125 C 7.972656 -41.773438 9.929688 -44.765625 12.390625 -47.296875 C 14.859375 -49.835938 17.796875 -51.851562 21.203125 -53.34375 C 24.609375 -54.832031 28.234375 -55.578125 32.078125 -55.578125 C 35.992188 -55.578125 39.816406 -54.8125 43.546875 -53.28125 C 47.285156 -51.757812 50.566406 -49.660156 53.390625 -46.984375 L 48.28125 -41.109375 C 46.101562 -43.359375 43.601562 -45.097656 40.78125 -46.328125 C 37.957031 -47.554688 35.09375 -48.171875 32.1875 -48.171875 C 29.4375 -48.171875 26.828125 -47.625 24.359375 -46.53125 C 21.890625 -45.445312 19.765625 -43.960938 17.984375 -42.078125 C 16.210938 -40.203125 14.816406 -37.992188 13.796875 -35.453125 C 12.785156 -32.910156 12.28125 -30.191406 12.28125 -27.296875 C 12.28125 -24.328125 12.804688 -21.550781 13.859375 -18.96875 C 14.910156 -16.394531 16.320312 -14.179688 18.09375 -12.328125 C 19.875 -10.484375 22 -9.019531 24.46875 -7.9375 C 26.9375 -6.851562 29.546875 -6.3125 32.296875 -6.3125 Z M 32.296875 -6.3125 "/></g></g></g><g fill="#7687ff" fill-opacity="1"><g transform="translate(529.255386, 552.286744)"><g><path d="M 24.03125 0.984375 C 18.082031 0.984375 13.242188 -0.535156 9.515625 -3.578125 C 5.785156 -6.628906 3.921875 -10.582031 3.921875 -15.4375 C 3.921875 -20.519531 5.875 -24.5625 9.78125 -27.5625 C 13.695312 -30.570312 18.992188 -32.078125 25.671875 -32.078125 C 28.566406 -32.078125 31.375 -31.75 34.09375 -31.09375 C 36.8125 -30.445312 39.332031 -29.546875 41.65625 -28.390625 L 41.65625 -35.5625 C 41.65625 -39.914062 40.421875 -43.195312 37.953125 -45.40625 C 35.484375 -47.613281 31.894531 -48.71875 27.1875 -48.71875 C 24.5 -48.71875 21.796875 -48.335938 19.078125 -47.578125 C 16.359375 -46.816406 13.367188 -45.601562 10.109375 -43.9375 L 7.0625 -50.140625 C 10.976562 -52.023438 14.601562 -53.398438 17.9375 -54.265625 C 21.28125 -55.140625 24.617188 -55.578125 27.953125 -55.578125 C 34.835938 -55.578125 40.144531 -53.941406 43.875 -50.671875 C 47.613281 -47.410156 49.484375 -42.738281 49.484375 -36.65625 L 49.484375 0 L 41.65625 0 L 41.65625 -5.328125 C 39.1875 -3.222656 36.484375 -1.644531 33.546875 -0.59375 C 30.609375 0.457031 27.4375 0.984375 24.03125 0.984375 Z M 11.640625 -15.65625 C 11.640625 -12.613281 12.925781 -10.128906 15.5 -8.203125 C 18.070312 -6.285156 21.390625 -5.328125 25.453125 -5.328125 C 28.710938 -5.328125 31.679688 -5.832031 34.359375 -6.84375 C 37.046875 -7.863281 39.476562 -9.460938 41.65625 -11.640625 L 41.65625 -21.859375 C 39.40625 -23.378906 36.992188 -24.484375 34.421875 -25.171875 C 31.847656 -25.859375 29 -26.203125 25.875 -26.203125 C 21.53125 -26.203125 18.070312 -25.238281 15.5 -23.3125 C 12.925781 -21.394531 11.640625 -18.84375 11.640625 -15.65625 Z M 11.640625 -15.65625 "/></g></g></g><g fill="#7687ff" fill-opacity="1"><g transform="translate(279.354175, 647.412847)"><g><path d="M 9.609375 0 L 3.875 -30.171875 L 10.25 -30.171875 L 14.390625 -6.421875 L 28.53125 -30.171875 L 35.125 -30.171875 L 16.71875 0 Z M 9.609375 0 "/></g></g></g><g fill="#7687ff" fill-opacity="1"><g transform="translate(312.145907, 647.412847)"><g><path d="M 0.296875 0 L 6.71875 -30.171875 L 29.4375 -30.171875 L 28.265625 -24.734375 L 11.671875 -24.734375 L 10.21875 -17.84375 L 21.109375 -17.84375 L 20 -12.578125 L 9.09375 -12.578125 L 7.578125 -5.4375 L 24.34375 -5.4375 L 23.1875 0 Z M 0.296875 0 "/></g></g></g><g fill="#7687ff" fill-opacity="1"><g transform="translate(341.318091, 647.412847)"><g><path d="M 6.71875 -30.171875 L 12.5 -30.171875 L 22.921875 -10.125 L 27.1875 -30.171875 L 32.96875 -30.171875 L 26.546875 0 L 21.203125 0 L 10.46875 -20.6875 L 6.078125 0 L 0.296875 0 Z M 6.71875 -30.171875 "/></g></g></g><g fill="#7687ff" fill-opacity="1"><g transform="translate(374.799267, 647.412847)"><g><path d="M 0.296875 0 L 6.71875 -30.171875 L 29.4375 -30.171875 L 28.265625 -24.734375 L 11.671875 -24.734375 L 10.21875 -17.84375 L 21.109375 -17.84375 L 20 -12.578125 L 9.09375 -12.578125 L 7.578125 -5.4375 L 24.34375 -5.4375 L 23.1875 0 Z M 0.296875 0 "/></g></g></g><g fill="#7687ff" fill-opacity="1"><g transform="translate(403.971454, 647.412847)"><g><path d="M -1.46875 0 L -0.5625 -4.265625 L 19.65625 -24.734375 L 3.921875 -24.734375 L 5.078125 -30.171875 L 29.21875 -30.171875 L 28.265625 -25.90625 L 8.015625 -5.4375 L 24.125 -5.4375 L 22.96875 0 Z M -1.46875 0 "/></g></g></g><g fill="#7687ff" fill-opacity="1"><g transform="translate(431.850939, 647.412847)"><g><path d="M 33.65625 -16.375 C 33.65625 -14.070312 33.207031 -11.894531 32.3125 -9.84375 C 31.425781 -7.789062 30.226562 -6.003906 28.71875 -4.484375 C 27.207031 -2.960938 25.425781 -1.753906 23.375 -0.859375 C 21.320312 0.0234375 19.160156 0.46875 16.890625 0.46875 C 14.828125 0.46875 12.90625 0.109375 11.125 -0.609375 C 9.34375 -1.328125 7.800781 -2.316406 6.5 -3.578125 C 5.207031 -4.835938 4.1875 -6.34375 3.4375 -8.09375 C 2.695312 -9.851562 2.328125 -11.753906 2.328125 -13.796875 C 2.328125 -16.085938 2.769531 -18.257812 3.65625 -20.3125 C 4.550781 -22.375 5.753906 -24.164062 7.265625 -25.6875 C 8.773438 -27.207031 10.554688 -28.410156 12.609375 -29.296875 C 14.660156 -30.191406 16.820312 -30.640625 19.09375 -30.640625 C 21.15625 -30.640625 23.078125 -30.28125 24.859375 -29.5625 C 26.640625 -28.84375 28.175781 -27.847656 29.46875 -26.578125 C 30.769531 -25.316406 31.789062 -23.8125 32.53125 -22.0625 C 33.28125 -20.3125 33.65625 -18.414062 33.65625 -16.375 Z M 27.40625 -15.984375 C 27.40625 -17.253906 27.1875 -18.441406 26.75 -19.546875 C 26.320312 -20.648438 25.71875 -21.597656 24.9375 -22.390625 C 24.164062 -23.179688 23.25 -23.796875 22.1875 -24.234375 C 21.125 -24.679688 19.960938 -24.90625 18.703125 -24.90625 C 17.296875 -24.90625 15.972656 -24.625 14.734375 -24.0625 C 13.503906 -23.507812 12.4375 -22.742188 11.53125 -21.765625 C 10.625 -20.785156 9.90625 -19.640625 9.375 -18.328125 C 8.84375 -17.023438 8.578125 -15.640625 8.578125 -14.171875 C 8.578125 -12.910156 8.796875 -11.726562 9.234375 -10.625 C 9.679688 -9.519531 10.285156 -8.570312 11.046875 -7.78125 C 11.816406 -6.988281 12.738281 -6.367188 13.8125 -5.921875 C 14.882812 -5.472656 16.039062 -5.25 17.28125 -5.25 C 18.6875 -5.25 20.003906 -5.53125 21.234375 -6.09375 C 22.472656 -6.65625 23.546875 -7.425781 24.453125 -8.40625 C 25.359375 -9.382812 26.078125 -10.523438 26.609375 -11.828125 C 27.140625 -13.140625 27.40625 -14.523438 27.40625 -15.984375 Z M 27.40625 -15.984375 "/></g></g></g><g fill="#7687ff" fill-opacity="1"><g transform="translate(468.046771, 647.412847)"><g><path d="M 0.296875 0 L 6.71875 -30.171875 L 12.84375 -30.171875 L 7.578125 -5.515625 L 23.75 -5.515625 L 22.578125 0 Z M 0.296875 0 "/></g></g></g><g fill="#7687ff" fill-opacity="1"><g transform="translate(496.443329, 647.412847)"><g><path d="M -2.546875 0 L 15.90625 -30.171875 L 22.96875 -30.171875 L 28.703125 0 L 22.40625 0 L 21.03125 -7.921875 L 8.796875 -7.921875 L 4.140625 0 Z M 11.71875 -12.921875 L 20.171875 -12.921875 L 18.265625 -24.046875 Z M 11.71875 -12.921875 "/></g></g></g><g fill="#7687ff" fill-opacity="1"><g transform="translate(529.235063, 647.412847)"><g><path d="M 6.71875 -30.171875 L 12.5 -30.171875 L 22.921875 -10.125 L 27.1875 -30.171875 L 32.96875 -30.171875 L 26.546875 0 L 21.203125 0 L 10.46875 -20.6875 L 6.078125 0 L 0.296875 0 Z M 6.71875 -30.171875 "/></g></g></g><g fill="#7687ff" fill-opacity="1"><g transform="translate(562.716234, 647.412847)"><g><path d="M -2.546875 0 L 15.90625 -30.171875 L 22.96875 -30.171875 L 28.703125 0 L 22.40625 0 L 21.03125 -7.921875 L 8.796875 -7.921875 L 4.140625 0 Z M 11.71875 -12.921875 L 20.171875 -12.921875 L 18.265625 -24.046875 Z M 11.71875 -12.921875 "/></g></g></g></svg>