<svg xmlns="http://www.w3.org/2000/svg" xmlns:xlink="http://www.w3.org/1999/xlink" width="1024" zoomAndPan="magnify" viewBox="0 0 768 239.999995" height="320" preserveAspectRatio="xMidYMid meet" version="1.0"><defs><clipPath id="3cc5b55fb3"><path d="M 0 1.722656 L 768 1.722656 L 768 238.710938 L 0 238.710938 Z M 0 1.722656 " clip-rule="nonzero"/></clipPath><clipPath id="2a80409157"><path d="M 214.339844 28.300781 C 209.242188 28.300781 204.058594 29.542969 199.941406 31.867188 C 186.042969 39.710938 178.984375 55.996094 175.511719 68.277344 C 169.421875 89.800781 171.972656 109.257812 182.324219 120.324219 C 183.929688 122.039062 185.78125 123.628906 187.878906 125.085938 C 195.386719 117.269531 202.824219 108.855469 210.21875 99.816406 C 221.8125 85.652344 232.820312 70.234375 234.941406 53.46875 C 235.816406 46.546875 234.835938 40.449219 232.175781 36.3125 C 228.644531 30.816406 221.585938 28.304688 214.339844 28.304688 M 463.402344 125.511719 C 429.574219 140.410156 402.765625 165.761719 389.960938 195.640625 C 389.144531 197.542969 386.664062 203.332031 387.546875 206.3125 C 388.765625 210.394531 398.378906 212.769531 407.722656 211.289062 C 440.046875 206.171875 466.761719 177.03125 467.273438 146.332031 C 467.386719 139.375 466.042969 132.292969 463.402344 125.507812 M 402.070312 238.277344 C 395.859375 238.277344 389.800781 237.34375 384.398438 235.515625 C 373.039062 231.671875 365.125 223.992188 362.109375 213.890625 C 358.894531 203.089844 362.265625 192.875 365.5625 185.1875 C 374.707031 163.851562 389.777344 144.078125 409.144531 128.015625 C 420.949219 118.226562 434.335938 109.796875 448.652344 103.074219 C 437.582031 91.996094 423.320312 85.515625 409.234375 85.21875 C 382.1875 84.667969 358.960938 102.140625 334.367188 120.65625 C 312.875 136.835938 290.652344 153.570312 263.59375 160.257812 C 247.832031 164.15625 230.34375 164.542969 211.613281 161.414062 C 205.003906 160.304688 198.929688 158.84375 193.371094 157.007812 C 175.148438 174.167969 156.367188 188.296875 136.664062 199.71875 C 117.550781 210.800781 97.535156 219.175781 77.167969 224.617188 C 55.367188 230.4375 33.605469 232.757812 12.484375 231.503906 C 5.171875 231.074219 -0.40625 224.792969 0.0234375 217.476562 C 0.453125 210.160156 6.734375 204.585938 14.054688 205.011719 C 32.339844 206.089844 51.269531 204.058594 70.324219 198.972656 C 88.425781 194.136719 106.265625 186.664062 123.355469 176.757812 C 138.925781 167.734375 153.921875 156.789062 168.558594 143.742188 C 166.566406 142.089844 164.699219 140.332031 162.949219 138.460938 C 153.617188 128.492188 148.007812 115.707031 146.277344 100.460938 C 144.882812 88.152344 146.15625 74.523438 149.964844 61.046875 C 156.894531 36.554688 169.660156 18.472656 186.894531 8.746094 C 197.417969 2.808594 210.476562 0.484375 222.726562 2.355469 C 236.453125 4.457031 247.738281 11.425781 254.511719 21.964844 C 260.613281 31.46875 262.953125 43.511719 261.277344 56.792969 C 258.320312 80.214844 244.863281 99.390625 230.765625 116.625 C 225.503906 123.050781 220.21875 129.1875 214.894531 135.050781 C 215.257812 135.117188 215.625 135.179688 215.992188 135.242188 C 231.128906 137.769531 245 137.519531 257.230469 134.496094 C 279.019531 129.109375 298.152344 114.703125 318.40625 99.457031 C 345.527344 79.039062 373.578125 57.921875 409.792969 58.6875 C 431.542969 59.144531 453.246094 69.210938 469.347656 86.296875 C 471.367188 88.445312 473.273438 90.675781 475.066406 92.972656 C 496.003906 86.660156 518.726562 83.417969 542.640625 83.324219 C 542.992188 83.324219 543.339844 83.320312 543.691406 83.320312 C 565.722656 83.320312 588.886719 85.976562 612.566406 91.21875 C 666.945312 103.253906 718.894531 127.449219 762.8125 161.1875 C 768.625 165.648438 769.710938 173.984375 765.25 179.796875 C 760.785156 185.609375 752.449219 186.703125 746.636719 182.234375 C 705.785156 150.847656 657.441406 128.335938 606.828125 117.132812 C 584.6875 112.230469 563.132812 109.785156 542.742188 109.863281 C 523.570312 109.941406 505.347656 112.253906 488.445312 116.757812 C 492.105469 126.480469 493.972656 136.683594 493.804688 146.773438 C 493.453125 168.144531 484.621094 189.308594 468.945312 206.367188 C 453.605469 223.054688 433.335938 234.113281 411.867188 237.507812 C 408.605469 238.027344 405.316406 238.277344 402.0625 238.277344 " clip-rule="nonzero"/></clipPath></defs><g clip-path="url(#3cc5b55fb3)"><g clip-path="url(#2a80409157)"><path fill="#f5ff92" d="M 0 1.722656 L 768 1.722656 L 768 238.269531 L 0 238.269531 Z M 0 1.722656 " fill-opacity="1" fill-rule="nonzero"/></g></g></svg>