<svg xmlns="http://www.w3.org/2000/svg" xmlns:xlink="http://www.w3.org/1999/xlink" width="300" zoomAndPan="magnify" viewBox="0 0 224.87999 112.499997" height="150" preserveAspectRatio="xMidYMid meet" version="1.0"><defs><clipPath id="1dc5ef056d"><path d="M 13.5625 3.378906 L 224.324219 3.378906 L 224.324219 100.828125 L 13.5625 100.828125 Z M 13.5625 3.378906 " clip-rule="nonzero"/></clipPath><clipPath id="ef7782aa70"><path d="M 115.160156 55.988281 C 113.535156 54.328125 112.144531 52.535156 111.03125 50.644531 C 107.230469 44.230469 106.664062 36.425781 109.582031 30.746094 C 111.921875 26.222656 117.078125 23.105469 121.695312 23.105469 C 122.5 23.105469 123.289062 23.191406 124.039062 23.390625 C 125.09375 23.671875 125.601562 23.996094 125.6875 24.082031 C 125.707031 24.113281 126.179688 24.746094 126.445312 27.195312 C 127.492188 36.851562 123.183594 47.503906 115.160156 56 Z M 46.632812 100.757812 C 49.214844 100.757812 51.835938 100.671875 54.472656 100.5 C 76.734375 99.078125 98.859375 91.832031 116.003906 80.457031 C 118.164062 81.582031 120.429688 82.578125 122.761719 83.472656 C 130.085938 86.253906 137.503906 87.636719 145.15625 87.636719 C 151.882812 87.636719 158.785156 86.570312 165.9375 84.421875 C 178.722656 80.59375 190.097656 72.386719 202.488281 67.316406 C 221.523438 59.542969 237.824219 48.464844 255.753906 48.464844 C 256.320312 48.464844 256.894531 48.472656 257.460938 48.503906 L 259.402344 30.101562 C 256.933594 29.84375 254.503906 29.71875 252.105469 29.71875 C 230.257812 29.71875 211.339844 40.007812 192.957031 50.277344 C 176.121094 59.6875 161.023438 68.113281 145.269531 68.113281 C 141 68.113281 136.679688 67.488281 132.261719 66.105469 C 135.144531 62.632812 137.648438 58.90625 139.710938 55 C 144.820312 45.335938 146.941406 34.988281 145.863281 25.0625 C 145.230469 19.226562 143.445312 14.707031 140.402344 11.230469 C 137.621094 8.042969 133.664062 5.710938 128.980469 4.492188 C 126.589844 3.859375 124.132812 3.5625 121.6875 3.5625 C 109.839844 3.5625 98.003906 10.585938 92.238281 21.789062 C 86.207031 33.492188 86.964844 48.359375 94.242188 60.597656 C 95.710938 63.09375 97.449219 65.464844 99.417969 67.699219 C 86.015625 75.140625 69.457031 79.976562 53.226562 81.023438 C 50.988281 81.160156 48.773438 81.234375 46.59375 81.234375 C 34.460938 81.234375 23.375 79.019531 13.988281 74.773438 L 13.988281 95.699219 C 23.941406 99.03125 34.949219 100.75 46.640625 100.75 Z M 46.632812 100.757812 " clip-rule="nonzero"/></clipPath><clipPath id="b2534ba619"><path d="M 0.4375 73 L 29 73 L 29 99 L 0.4375 99 Z M 0.4375 73 " clip-rule="nonzero"/></clipPath><clipPath id="5c178cad31"><path d="M -2.417969 89.632812 L 4.175781 71.105469 L 28.996094 79.941406 L 22.402344 98.464844 Z M -2.417969 89.632812 " clip-rule="nonzero"/></clipPath><clipPath id="1051fe160d"><path d="M 0.3125 83.640625 C 0.328125 82.582031 0.503906 81.421875 0.878906 80.363281 C 1.257812 79.304688 1.800781 78.347656 2.457031 77.523438 C 2.472656 77.507812 2.480469 77.488281 2.496094 77.46875 C 5.039062 74.398438 9.359375 73.007812 13.390625 74.386719 L 28.980469 79.933594 L 22.386719 98.460938 L 6.808594 92.914062 C 2.78125 91.425781 0.296875 87.65625 0.3125 83.640625 Z M 0.3125 83.640625 " clip-rule="nonzero"/></clipPath><clipPath id="214cd424ca"><path d="M 0.4375 73 L 105 73 L 105 112.003906 L 0.4375 112.003906 Z M 0.4375 73 " clip-rule="nonzero"/></clipPath><clipPath id="207574c64b"><path d="M 0.4375 59 L 114 59 L 114 103 L 0.4375 103 Z M 0.4375 59 " clip-rule="nonzero"/></clipPath></defs><g clip-path="url(#1dc5ef056d)"><g clip-path="url(#ef7782aa70)"><path fill="#fbc5ff" d="M 491.664062 123.507812 L 10.195312 123.507812 L 10.195312 0 L 491.664062 0 Z M 491.664062 123.507812 " fill-opacity="1" fill-rule="nonzero"/></g></g><g clip-path="url(#b2534ba619)"><g clip-path="url(#5c178cad31)"><g clip-path="url(#1051fe160d)"><path fill="#fbc5ff" d="M -2.417969 89.632812 L 4.175781 71.105469 L 28.996094 79.941406 L 22.402344 98.464844 Z M -2.417969 89.632812 " fill-opacity="1" fill-rule="nonzero"/></g></g></g><g clip-path="url(#214cd424ca)"><path stroke-linecap="butt" transform="matrix(-0.746676, 0.00276547, -0.00276547, -0.746676, 87.688, 100.484937)" fill="none" stroke-linejoin="miter" d="M 0.611874 12.951026 C 46.106913 -1.649049 82.104997 -1.651742 108.61132 12.953428 " stroke="#fbc5ff" stroke-width="4" stroke-opacity="1" stroke-miterlimit="4"/></g><g clip-path="url(#207574c64b)"><path stroke-linecap="butt" transform="matrix(-0.746662, -0.00537313, 0.00537313, -0.746662, 97.430199, 87.049332)" fill="none" stroke-linejoin="miter" d="M 0.596129 12.952485 C 47.423876 -1.651117 84.484652 -1.651001 111.767996 12.952907 " stroke="#fbc5ff" stroke-width="4" stroke-opacity="1" stroke-miterlimit="4"/></g></svg>