<svg xmlns="http://www.w3.org/2000/svg" xmlns:xlink="http://www.w3.org/1999/xlink" width="300" zoomAndPan="magnify" viewBox="0 0 224.87999 112.499997" height="150" preserveAspectRatio="xMidYMid meet" version="1.0"><defs><clipPath id="755d6b4a77"><path d="M 0.4375 4.066406 L 224.324219 4.066406 L 224.324219 108.382812 L 0.4375 108.382812 Z M 0.4375 4.066406 " clip-rule="nonzero"/></clipPath><clipPath id="c7a783eeb6"><path d="M 117.414062 52.0625 C 119.148438 53.839844 120.640625 55.761719 121.832031 57.785156 C 125.898438 64.652344 126.507812 73.003906 123.382812 79.085938 C 120.875 83.925781 115.359375 87.265625 110.414062 87.265625 C 109.550781 87.265625 108.710938 87.175781 107.90625 86.957031 C 106.777344 86.660156 106.234375 86.3125 106.140625 86.21875 C 106.121094 86.1875 105.617188 85.507812 105.328125 82.890625 C 104.207031 72.550781 108.824219 61.148438 117.414062 52.054688 Z M 190.769531 4.140625 C 188.003906 4.140625 185.199219 4.230469 182.375 4.417969 C 158.546875 5.9375 134.859375 13.695312 116.507812 25.871094 C 114.195312 24.667969 111.769531 23.601562 109.273438 22.644531 C 101.433594 19.664062 93.492188 18.183594 85.300781 18.183594 C 78.097656 18.183594 70.710938 19.324219 63.054688 21.628906 C 49.367188 25.726562 37.191406 34.511719 23.925781 39.9375 C 3.550781 48.261719 -13.894531 60.121094 -33.089844 60.121094 C -33.695312 60.121094 -34.3125 60.109375 -34.917969 60.078125 L -36.996094 79.777344 C -34.355469 80.054688 -31.753906 80.1875 -29.1875 80.1875 C -5.800781 80.1875 14.453125 69.171875 34.128906 58.175781 C 52.152344 48.105469 68.316406 39.085938 85.179688 39.085938 C 89.75 39.085938 94.375 39.753906 99.101562 41.234375 C 96.019531 44.953125 93.335938 48.941406 91.128906 53.121094 C 85.660156 63.46875 83.390625 74.546875 84.542969 85.171875 C 85.21875 91.417969 87.132812 96.257812 90.386719 99.976562 C 93.367188 103.390625 97.601562 105.886719 102.617188 107.191406 C 105.175781 107.867188 107.804688 108.1875 110.425781 108.1875 C 123.105469 108.1875 135.773438 100.664062 141.949219 88.675781 C 148.402344 76.148438 147.589844 60.230469 139.800781 47.132812 C 138.230469 44.460938 136.371094 41.921875 134.265625 39.527344 C 148.609375 31.5625 166.332031 26.386719 183.710938 25.265625 C 186.105469 25.121094 188.476562 25.039062 190.808594 25.039062 C 203.796875 25.039062 215.664062 27.414062 225.714844 31.953125 L 225.714844 9.554688 C 215.058594 5.988281 203.273438 4.148438 190.757812 4.148438 Z M 190.769531 4.140625 " clip-rule="nonzero"/></clipPath></defs><g clip-path="url(#755d6b4a77)"><g clip-path="url(#c7a783eeb6)"><path fill="#f5ff92" d="M -285.628906 -20.214844 L 229.773438 -20.214844 L 229.773438 112 L -285.628906 112 Z M -285.628906 -20.214844 " fill-opacity="1" fill-rule="nonzero"/></g></g></svg>